<?xml version="1.0" standalone="no"?>
<!DOCTYPE svg PUBLIC "-//W3C//DTD SVG 20010904//EN"
 "http://www.w3.org/TR/2001/REC-SVG-20010904/DTD/svg10.dtd">
<svg version="1.0" xmlns="http://www.w3.org/2000/svg"
 width="500.000000pt" height="500.000000pt" viewBox="0 0 500.000000 500.000000"
 preserveAspectRatio="xMidYMid meet">
<metadata>
Created by potrace 1.16, written by Peter Selinger 2001-2019
</metadata>
<g transform="translate(0.000000,500.000000) scale(0.100000,-0.100000)"
fill="#000000" stroke="none">
<path d="M2571 3145 c-41 -35 -55 -84 -48 -165 4 -45 2 -72 -6 -81 -10 -11 -9
-11 4 -1 14 10 19 6 34 -31 10 -23 20 -45 22 -48 2 -4 -10 -11 -26 -17 -20 -7
-37 -25 -51 -51 -26 -53 -48 -53 -56 -1 -7 41 -34 57 -34 20 0 -11 -7 -20 -15
-20 -8 0 -15 7 -15 15 0 8 -7 15 -15 15 -14 0 -21 -18 -27 -70 -5 -39 -22 -27
-36 24 -14 49 -38 65 -27 18 4 -22 0 -33 -19 -51 -31 -30 -46 -20 -46 30 l0
39 -42 -6 c-24 -4 -50 -12 -58 -19 -16 -13 -76 -35 -96 -35 -9 0 -7 15 8 58
13 36 23 91 26 149 4 85 2 98 -22 146 -36 75 -84 101 -175 95 -76 -6 -149 -36
-243 -99 -126 -84 -272 -259 -242 -289 8 -8 20 8 43 54 23 46 52 84 105 133
161 150 342 219 432 164 81 -49 96 -209 35 -372 -21 -55 -23 -57 -84 -79 -34
-12 -88 -36 -120 -52 -42 -21 -59 -25 -61 -16 -3 7 -12 78 -21 158 -24 219
-26 230 -41 230 -17 0 -18 15 10 -220 l24 -195 -59 -54 c-33 -29 -67 -67 -75
-83 -20 -39 -11 -76 21 -84 18 -4 24 -12 21 -23 -25 -86 -30 -120 -30 -216 -1
-100 1 -115 26 -166 36 -73 88 -104 159 -96 104 13 211 100 268 219 16 34 31
55 35 49 13 -21 49 -11 92 24 52 43 64 44 64 6 0 -16 7 -34 15 -41 12 -10 20
-7 43 16 26 28 29 28 45 12 24 -25 35 -23 72 16 l32 34 21 -20 c16 -16 27 -19
56 -14 45 9 132 82 128 108 -2 13 3 18 17 18 32 0 22 -39 -22 -87 -21 -23 -19
-25 18 -27 17 -1 20 -8 20 -50 0 -55 21 -80 53 -60 25 16 26 40 3 84 l-20 39
26 31 c14 17 23 33 20 36 -2 3 -18 -11 -35 -32 -38 -46 -57 -38 -31 13 25 49
24 61 -6 69 -32 8 -79 -21 -71 -43 7 -17 -23 -44 -76 -69 -31 -14 -40 -14 -53
-4 -21 17 -19 50 3 50 23 0 64 29 57 41 -11 18 -61 9 -83 -14 -12 -13 -22 -28
-22 -33 0 -19 -60 -75 -77 -72 -20 4 -35 64 -31 123 l3 40 54 8 c77 11 78 20
1 16 l-65 -4 -5 30 c-7 38 -25 34 -24 -5 2 -25 -3 -30 -30 -36 l-31 -8 30 -5
c29 -6 30 -9 36 -66 4 -41 1 -69 -8 -87 -19 -38 -31 -35 -35 10 -3 31 -6 37
-24 35 -18 -2 -21 2 -17 18 5 17 2 20 -13 17 -13 -2 -19 -12 -19 -30 0 -41
-21 -56 -28 -20 -14 69 -75 41 -112 -52 -49 -122 -147 -225 -242 -257 -74 -24
-149 23 -172 108 -16 57 -12 219 7 293 15 56 21 67 50 81 56 29 115 71 169
122 l52 49 -14 -59 c-8 -32 -19 -74 -25 -93 -12 -43 -13 -40 4 -40 7 0 19 12
25 28 15 37 41 151 41 180 0 13 15 48 33 78 26 43 40 56 76 69 25 8 46 15 47
15 2 0 4 -15 6 -32 3 -29 7 -33 35 -36 26 -3 34 2 47 25 12 24 15 26 21 11 10
-25 52 -22 79 5 23 23 23 23 32 3 6 -13 18 -21 34 -21 19 0 26 7 33 32 8 28
47 55 47 32 0 -5 9 -18 21 -30 20 -20 21 -20 47 -3 18 12 27 13 30 6 7 -22 69
-13 100 13 l30 25 36 -21 c21 -12 43 -18 55 -14 23 7 71 61 71 78 0 7 -11 -2
-25 -19 -31 -40 -58 -47 -89 -23 l-24 19 34 68 c41 79 52 156 34 231 -24 101
-95 139 -159 86z m100 -25 c28 -38 41 -124 29 -189 -10 -55 -46 -141 -58 -141
-11 0 -60 86 -76 135 -9 25 -16 72 -16 105 0 49 4 64 26 90 32 37 68 37 95 0z
m-793 -527 c2 -14 -9 -38 -30 -63 -51 -62 -181 -160 -194 -147 -11 10 41 97
55 94 10 -1 16 6 17 18 1 35 24 65 72 96 53 33 76 34 80 2z"/>
<path d="M3356 3135 c-22 -13 -44 -31 -48 -39 -5 -9 -14 -16 -19 -16 -6 0 -35
-20 -66 -45 -30 -25 -52 -45 -49 -45 4 0 29 18 57 40 28 22 54 40 58 40 4 0
58 -18 121 -39 l115 -39 -155 -3 c-85 -1 -141 -4 -123 -6 19 -3 34 -11 36 -21
4 -15 5 -15 6 1 1 15 13 17 109 17 77 0 103 -3 92 -11 -11 -7 1 -8 40 -3 30 3
57 8 59 10 4 3 -160 184 -168 184 -5 0 24 -34 94 -109 27 -29 45 -52 39 -50
-6 2 -61 26 -122 54 l-111 49 47 28 c26 15 43 28 37 28 -5 -1 -28 -11 -49 -25z"/>
<path d="M3434 1914 c-6 -23 -4 -44 12 -119 7 -30 7 -30 -14 -11 -12 10 -28
16 -36 13 -20 -8 -32 -56 -19 -76 15 -23 57 -21 61 4 7 37 21 46 47 29 18 -12
28 -13 44 -4 12 6 21 15 21 20 0 6 12 10 26 10 17 0 28 6 31 20 6 22 18 26 28
10 9 -14 45 7 45 27 0 13 -3 13 -15 3 -18 -15 -26 -9 -41 33 -13 35 -18 28
-29 -35 -7 -44 -20 -49 -29 -13 -8 33 -26 32 -26 -1 0 -42 -18 -66 -40 -54
-16 8 -17 15 -9 42 13 46 11 102 -3 116 -21 21 -47 14 -54 -14z"/>
<path d="M3091 1791 c-6 -11 -11 -34 -11 -52 0 -19 -7 -37 -17 -45 -17 -12
-16 -13 5 -14 13 0 22 -6 22 -15 0 -19 -5 -19 -34 1 -26 16 -29 15 -61 -31
-13 -19 -14 -19 -28 -1 -7 10 -22 17 -32 14 -25 -4 -43 -53 -29 -76 16 -24 53
-28 61 -5 13 38 24 44 42 22 20 -25 40 -18 65 24 19 31 20 31 24 9 3 -20 7
-22 35 -16 37 8 47 19 47 57 0 32 -24 46 -51 28 -25 -15 -24 -7 2 28 27 37 23
85 -8 89 -14 2 -26 -4 -32 -17z"/>
</g>
</svg>
