<?xml version="1.0" standalone="no"?>
<!DOCTYPE svg PUBLIC "-//W3C//DTD SVG 20010904//EN"
 "http://www.w3.org/TR/2001/REC-SVG-20010904/DTD/svg10.dtd">
<svg version="1.0" xmlns="http://www.w3.org/2000/svg"
 width="1000.000000pt" height="750.000000pt" viewBox="0 0 1000.000000 750.000000"
 preserveAspectRatio="xMidYMid meet">
<metadata>
Created by potrace 1.16, written by Peter Selinger 2001-2019
</metadata>
<g transform="translate(0.000000,750.000000) scale(0.100000,-0.100000)"
fill="#000000" stroke="none">
<path d="M0 3750 l0 -3750 5000 0 5000 0 0 3750 0 3750 -5000 0 -5000 0 0
-3750z m1000 405 l0 -215 -30 0 -30 0 0 215 0 215 30 0 30 0 0 -215z m200 0
l0 -215 -30 0 -30 0 0 215 0 215 30 0 30 0 0 -215z m510 0 l0 -215 -30 0 -30
0 0 215 0 215 30 0 30 0 0 -215z m290 0 l0 -215 -30 0 -30 0 0 215 0 215 30 0
30 0 0 -215z m620 0 l0 -215 -30 0 -30 0 0 215 0 215 30 0 30 0 0 -215z m180
0 l0 -215 -30 0 -30 0 0 215 0 215 30 0 30 0 0 -215z m550 0 l0 -215 -30 0
-30 0 0 215 0 215 30 0 30 0 0 -215z m200 0 l0 -215 -30 0 -30 0 0 215 0 215
30 0 30 0 0 -215z m650 0 l0 -215 -30 0 -30 0 0 215 0 215 30 0 30 0 0 -215z
m200 0 l0 -215 -30 0 -30 0 0 215 0 215 30 0 30 0 0 -215z m200 0 l0 -215 -30
0 -30 0 0 215 0 215 30 0 30 0 0 -215z m130 0 l0 -215 -30 0 -30 0 0 215 0
215 30 0 30 0 0 -215z m140 0 l0 -215 -35 0 -35 0 0 215 0 215 35 0 35 0 0
-215z m80 0 l0 -215 -30 0 -30 0 0 215 0 215 30 0 30 0 0 -215z m710 0 l0
-215 -30 0 -30 0 0 215 0 215 30 0 30 0 0 -215z m140 0 l0 -215 -35 0 -35 0 0
215 0 215 35 0 35 0 0 -215z m660 0 l0 -215 -30 0 -30 0 0 215 0 215 30 0 30
0 0 -215z m180 0 l0 -215 -30 0 -30 0 0 215 0 215 30 0 30 0 0 -215z m710 0
l0 -215 -30 0 -30 0 0 215 0 215 30 0 30 0 0 -215z m90 0 l0 -215 -30 0 -30 0
0 215 0 215 30 0 30 0 0 -215z m620 0 l0 -215 -30 0 -30 0 0 215 0 215 30 0
30 0 0 -215z m140 0 l0 -215 -35 0 -35 0 0 215 0 215 35 0 35 0 0 -215z m770
0 l0 -215 -30 0 -30 0 0 215 0 215 30 0 30 0 0 -215z m90 0 l0 -215 -30 0 -30
0 0 215 0 215 30 0 30 0 0 -215z m-7986 -307 c9 -12 16 -38 16 -58 0 -54 -23
-80 -71 -80 l-39 0 0 80 0 80 39 0 c30 0 44 -6 55 -22z m1876 -408 c0 -55 3
-100 6 -100 3 0 19 9 35 21 70 49 149 -3 149 -98 0 -89 -112 -162 -187 -122
-21 11 -27 11 -30 2 -3 -7 -11 -13 -19 -13 -11 0 -14 30 -14 170 0 159 -1 170
-20 180 -29 15 -25 25 18 43 63 26 62 27 62 -83z m2440 -89 c0 -181 1 -190 20
-196 38 -12 9 -25 -56 -25 -66 0 -80 10 -44 32 19 12 20 24 20 158 0 134 -1
146 -20 158 -29 18 -25 28 18 45 65 27 62 35 62 -172z m1200 64 l0 -55 43 -2
42 -1 -43 -4 -43 -4 3 -87 3 -87 35 -2 c19 -1 40 -2 45 -2 6 -1 -1 -11 -14
-21 -14 -12 -38 -20 -62 -20 -56 0 -69 24 -69 132 0 87 0 88 -25 88 -14 0 -25
3 -25 8 0 11 90 112 101 112 5 0 9 -25 9 -55z m-680 -125 c0 -114 9 -129 68
-105 31 13 32 16 32 69 0 45 -4 57 -20 66 -11 6 -20 15 -20 21 0 12 81 50 92
43 4 -3 8 -54 8 -114 0 -100 2 -109 20 -115 33 -10 12 -25 -36 -25 -37 0 -44
3 -44 20 0 11 -4 20 -8 20 -5 0 -17 -9 -27 -20 -12 -13 -31 -20 -56 -20 -53 0
-69 26 -69 112 0 57 -3 69 -20 78 -11 6 -20 15 -20 20 0 8 73 47 93 49 4 1 7
-44 7 -99z m1250 -14 c0 -105 1 -114 20 -119 11 -3 20 -10 20 -16 0 -7 -26
-11 -70 -11 -70 0 -87 10 -50 30 17 9 20 21 20 81 0 61 -3 73 -22 89 -13 10
-21 20 -18 23 7 5 83 36 93 36 4 1 7 -50 7 -113z m1190 72 c0 -24 7 -23 42 7
19 16 42 25 63 25 52 0 65 -27 65 -132 0 -78 2 -87 20 -93 33 -10 12 -25 -35
-25 l-44 0 -3 98 -3 97 -27 3 c-55 6 -68 -11 -68 -93 0 -65 2 -74 20 -80 38
-12 9 -25 -56 -25 -66 0 -80 10 -44 32 17 11 20 24 20 80 0 57 -3 69 -20 78
-29 16 -25 27 18 49 39 20 52 15 52 -21z m-7412 4 c4 -28 7 -28 44 3 19 16 42
25 63 25 52 0 65 -27 65 -132 0 -78 2 -87 20 -93 37 -12 21 -25 -30 -25 l-49
0 -3 98 -3 97 -27 3 c-55 6 -68 -11 -68 -93 0 -65 2 -74 20 -80 38 -12 9 -25
-56 -25 -66 0 -80 10 -44 32 17 11 20 24 20 80 0 57 -3 69 -20 78 -27 15 -25
27 8 44 36 20 56 16 60 -12z m823 -1 c27 -28 35 -55 29 -106 -7 -63 -70 -115
-139 -115 -52 0 -96 39 -106 93 -22 113 136 207 216 128z m660 1 c85 -76 15
-222 -107 -222 -47 0 -89 31 -100 75 -30 122 117 227 207 147z m1777 22 c17
-5 22 -14 22 -40 0 -41 -9 -42 -40 -9 -30 32 -80 35 -80 5 0 -14 16 -30 48
-49 92 -57 100 -75 53 -122 -25 -24 -38 -29 -79 -29 -71 0 -82 6 -82 46 0 39
9 43 36 13 37 -42 94 -47 94 -8 0 11 -18 28 -47 45 -94 53 -103 76 -54 125 30
30 74 37 129 23z m648 -12 c93 -75 29 -232 -94 -232 -123 0 -151 162 -40 230
41 25 105 26 134 2z m2954 5 c32 -25 50 -62 50 -106 0 -38 -5 -49 -44 -87 -39
-40 -48 -44 -93 -44 -41 0 -54 5 -77 29 -57 60 -40 154 36 201 37 22 105 26
128 7z m1318 7 c17 -5 22 -14 22 -40 0 -41 -9 -42 -40 -9 -29 31 -75 31 -75 1
0 -13 20 -32 60 -56 74 -45 83 -73 35 -114 -25 -20 -42 -26 -80 -26 -69 0 -80
6 -80 46 0 39 9 43 36 13 37 -42 94 -47 94 -9 0 12 -22 32 -59 55 -63 38 -79
62 -61 94 23 44 82 62 148 45z"/>
<path d="M2972 3324 c-28 -20 -31 -100 -4 -133 22 -29 79 -32 98 -6 18 24 18
77 0 120 -12 28 -20 35 -43 35 -16 0 -39 -7 -51 -16z"/>
<path d="M1622 3328 c-18 -18 -15 -109 6 -134 45 -56 102 -28 102 50 0 55 -30
96 -69 96 -15 0 -32 -5 -39 -12z"/>
<path d="M2291 3331 c-19 -12 -25 -91 -9 -121 16 -29 52 -50 78 -43 41 11 50
96 15 150 -16 24 -57 31 -84 14z"/>
<path d="M4722 3328 c-27 -35 -20 -120 13 -148 22 -19 66 -15 83 6 18 25 11
108 -13 134 -20 22 -67 27 -83 8z"/>
<path d="M7676 3318 c-43 -61 12 -167 77 -150 39 10 49 88 17 140 -24 40 -70
45 -94 10z"/>
</g>
</svg>
