<svg xmlns="http://www.w3.org/2000/svg" version="1.1" xmlns:xlink="http://www.w3.org/1999/xlink" xmlns:svgjs="http://svgjs.dev/svgjs" width="1000" height="750" viewBox="0 0 1000 750"><rect width="1000" height="750" fill="#141413"></rect><g transform="matrix(0.834,0,0,0.834,82.49454545454546,311.6892573649009)"><svg viewBox="0 0 396 60" data-background-color="#141413" preserveAspectRatio="xMidYMid meet" height="151" width="1000" xmlns="http://www.w3.org/2000/svg" xmlns:xlink="http://www.w3.org/1999/xlink"><g id="tight-bounds" transform="matrix(1,0,0,1,0.2400000000000091,0.16377275482352616)"><svg viewBox="0 0 395.52 59.67245449035294" height="59.67245449035294" width="395.52"><g><svg viewBox="0 0 395.52 59.67245449035294" height="59.67245449035294" width="395.52"><g><svg viewBox="0 0 395.52 59.67245449035294" height="59.67245449035294" width="395.52"><g><svg viewBox="0 0 395.52 59.67245449035294" height="59.67245449035294" width="395.52"><g><svg viewBox="0 0 395.52 59.67245449035294" height="59.67245449035294" width="395.52"><g><svg viewBox="0 0 395.52 59.67245449035294" height="59.67245449035294" width="395.52"><g><svg viewBox="0 0 395.52 32.18447058823529" height="32.18447058823529" width="395.52"><g transform="matrix(1,0,0,1,0,0)"><svg width="395.52" viewBox="0 -29.5 560.97 45.65" height="32.18447058823529" data-palette-color="#f7b107"><path d="M1.5 0L0 0 0-29.5 1.5-29.5 1.5 0ZM4.5 0L3 0 3-29.5 4.5-29.5 4.5 0ZM10.5 0L6 0 6-29.5 10.5-29.5 10.5 0ZM18 0L16.5 0 16.5-29.5 18-29.5 18 0ZM24 0L19.5 0 19.5-29.5 24-29.5 24 0ZM9.1 15.95L9.1 4.35 11.8 4.35Q13.25 4.35 14.05 4.75L14.05 4.75Q14.9 5.15 15.5 5.95L15.5 5.95Q16.65 7.45 16.65 10.2L16.65 10.2Q16.55 13.05 15.35 14.5L15.35 14.5Q14.15 16 11.6 15.95L11.6 15.95 9.1 15.95ZM10.35 14.95L11.5 14.95Q15.35 14.95 15.35 10.3L15.35 10.3Q15.35 7.95 14.5 6.7L14.5 6.7Q13.6 5.45 11.7 5.45L11.7 5.45 10.35 5.45 10.35 14.95ZM27 0L25.5 0 25.5-29.5 27-29.5 27 0ZM34.5 0L33 0 33-29.5 34.5-29.5 34.5 0ZM37.5 0L36 0 36-29.5 37.5-29.5 37.5 0ZM45 0L43.5 0 43.5-29.5 45-29.5 45 0ZM52.5 0L51 0 51-29.5 52.5-29.5 52.5 0ZM58.5 0L54 0 54-29.5 58.5-29.5 58.5 0ZM61.5 0L60 0 60-29.5 61.5-29.5 61.5 0ZM64.5 0L63 0 63-29.5 64.5-29.5 64.5 0ZM72 0L70.5 0 70.5-29.5 72-29.5 72 0ZM78 0L73.5 0 73.5-29.5 78-29.5 78 0ZM52.4 7.25L52.4 7.25Q54.2 7.25 55.15 8.2L55.15 8.2Q56.1 9.15 56.1 11.45L56.1 11.45 56.1 15.95 54.65 15.95 54.65 14.65Q53.9 16.15 51.75 16.15L51.75 16.15Q50.35 16.15 49.55 15.5L49.55 15.5Q48.75 14.85 48.75 13.8L48.75 13.8Q48.75 12.9 49.35 12.25L49.35 12.25Q49.9 11.6 50.9 11.2L50.9 11.2Q51.85 10.85 53.05 10.85L53.05 10.85Q54.1 10.85 54.95 10.95L54.95 10.95Q54.85 9.55 54.2 8.95L54.2 8.95Q53.55 8.35 52.3 8.35L52.3 8.35Q51.65 8.35 51.1 8.6L51.1 8.6Q50.5 8.85 50 9.3L50 9.3 49.35 8.45Q50.55 7.25 52.4 7.25ZM51.9 15.15L51.9 15.15Q53.3 15.15 54.1 14.3L54.1 14.3Q54.9 13.5 54.95 12L54.95 12Q54.1 11.85 53.15 11.85L53.15 11.85Q51.75 11.85 50.9 12.35L50.9 12.35Q50.1 12.8 50.1 13.75L50.1 13.75Q50.1 15.15 51.9 15.15ZM81 0L79.5 0 79.5-29.5 81-29.5 81 0ZM88.5 0L87 0 87-29.5 88.5-29.5 88.5 0ZM91.5 0L90 0 90-29.5 91.5-29.5 91.5 0ZM99 0L97.5 0 97.5-29.5 99-29.5 99 0ZM106.5 0L105 0 105-29.5 106.5-29.5 106.5 0ZM109.5 0L108 0 108-29.5 109.5-29.5 109.5 0ZM120 0L115.5 0 115.5-29.5 120-29.5 120 0ZM123 0L121.5 0 121.5-29.5 123-29.5 123 0ZM126 0L124.5 0 124.5-29.5 126-29.5 126 0ZM132 0L127.5 0 127.5-29.5 132-29.5 132 0ZM109.05 7.45L110.3 7.45Q110 8.95 109.05 11.15L109.05 11.15 107 15.95 105.95 15.95 102.59 7.45 103.95 7.45 106.55 14.1 107.95 10.95Q108.8 9.05 109.05 7.45L109.05 7.45ZM134.99 0L133.49 0 133.49-29.5 134.99-29.5 134.99 0ZM142.49 0L140.99 0 140.99-29.5 142.49-29.5 142.49 0ZM145.49 0L143.99 0 143.99-29.5 145.49-29.5 145.49 0ZM152.99 0L151.49 0 151.49-29.5 152.99-29.5 152.99 0ZM160.49 0L158.99 0 158.99-29.5 160.49-29.5 160.49 0ZM163.49 0L161.99 0 161.99-29.5 163.49-29.5 163.49 0ZM169.49 0L164.99 0 164.99-29.5 169.49-29.5 169.49 0ZM172.49 0L170.99 0 170.99-29.5 172.49-29.5 172.49 0ZM182.99 0L178.49 0 178.49-29.5 182.99-29.5 182.99 0ZM185.99 0L184.49 0 184.49-29.5 185.99-29.5 185.99 0ZM157.69 15.95L157.69 14.85 159.89 14.85 159.89 8.55 157.79 8.55 157.79 7.45 161.19 7.45 161.19 14.85 163.19 14.85 163.19 15.95 157.69 15.95ZM160.49 5.65L160.49 5.65Q160.09 5.65 159.79 5.4L159.79 5.4Q159.54 5.1 159.54 4.7L159.54 4.7Q159.54 4.3 159.79 4.05L159.79 4.05Q160.04 3.75 160.49 3.75L160.49 3.75Q160.84 3.75 161.14 4.05L161.14 4.05Q161.44 4.35 161.44 4.7L161.44 4.7Q161.44 5.1 161.14 5.4L161.14 5.4Q160.84 5.65 160.49 5.65ZM188.99 0L187.49 0 187.49-29.5 188.99-29.5 188.99 0ZM196.49 0L194.99 0 194.99-29.5 196.49-29.5 196.49 0ZM199.49 0L197.99 0 197.99-29.5 199.49-29.5 199.49 0ZM206.99 0L205.49 0 205.49-29.5 206.99-29.5 206.99 0ZM214.49 0L212.99 0 212.99-29.5 214.49-29.5 214.49 0ZM217.49 0L215.99 0 215.99-29.5 217.49-29.5 217.49 0ZM220.49 0L218.99 0 218.99-29.5 220.49-29.5 220.49 0ZM226.49 0L221.99 0 221.99-29.5 226.49-29.5 226.49 0ZM233.99 0L232.49 0 232.49-29.5 233.99-29.5 233.99 0ZM239.99 0L235.49 0 235.49-29.5 239.99-29.5 239.99 0ZM214.19 16.15L214.19 16.15Q213.29 16.15 212.49 15.6L212.49 15.6Q211.69 15.1 211.19 14.1L211.19 14.1Q210.69 13.05 210.69 11.6L210.69 11.6Q210.69 10.15 211.19 9.15L211.19 9.15Q211.74 8.2 212.54 7.7L212.54 7.7Q213.34 7.25 214.24 7.25L214.24 7.25Q215.14 7.25 215.74 7.6L215.74 7.6Q216.39 8 216.74 8.7L216.74 8.7 216.74 3.6 218.14 3.6 218.14 3.7Q218.04 3.85 217.99 3.95L217.99 3.95Q217.99 4.1 217.99 4.4L217.99 4.4 217.99 14.65Q217.99 15.1 218.04 15.35L218.04 15.35Q218.04 15.65 218.19 15.95L218.19 15.95 216.89 15.95Q216.74 15.65 216.69 15.35L216.69 15.35Q216.69 15.1 216.69 14.65L216.69 14.65Q216.29 15.35 215.64 15.75L215.64 15.75Q214.99 16.15 214.19 16.15ZM214.39 14.95L214.39 14.95Q215.54 14.95 216.09 14.05L216.09 14.05Q216.64 13.15 216.64 11.65L216.64 11.65Q216.64 10.15 216.04 9.25L216.04 9.25Q215.44 8.35 214.29 8.35L214.29 8.35Q213.19 8.35 212.59 9.15L212.59 9.15Q211.99 10 211.99 11.4L211.99 11.4Q211.99 13.05 212.59 14L212.59 14Q213.24 14.95 214.39 14.95ZM242.99 0L241.49 0 241.49-29.5 242.99-29.5 242.99 0ZM253.49 0L248.99 0 248.99-29.5 253.49-29.5 253.49 0ZM256.49 0L254.99 0 254.99-29.5 256.49-29.5 256.49 0ZM262.49 0L257.99 0 257.99-29.5 262.49-29.5 262.49 0ZM265.49 0L263.99 0 263.99-29.5 265.49-29.5 265.49 0ZM271.49 0L266.99 0 266.99-29.5 271.49-29.5 271.49 0ZM277.49 0L272.99 0 272.99-29.5 277.49-29.5 277.49 0ZM280.49 0L278.99 0 278.99-29.5 280.49-29.5 280.49 0ZM287.99 0L286.49 0 286.49-29.5 287.99-29.5 287.99 0ZM290.99 0L289.49 0 289.49-29.5 290.99-29.5 290.99 0ZM280.38 16.15L280.38 16.15Q279.09 16.15 278.09 15.5L278.09 15.5Q277.04 14.85 276.44 13.55L276.44 13.55Q275.84 12.2 275.84 10.2L275.84 10.2Q275.84 8.1 276.49 6.75L276.49 6.75Q277.13 5.45 278.13 4.85L278.13 4.85Q279.13 4.3 280.29 4.3L280.29 4.3Q281.54 4.3 282.44 4.9L282.44 4.9Q283.34 5.5 283.79 6.55L283.79 6.55 282.69 7.1 282.54 7.15 282.49 7.05 282.49 6.9Q282.49 6.7 282.24 6.35L282.24 6.35Q281.84 5.8 281.34 5.55L281.34 5.55Q280.84 5.3 280.29 5.3L280.29 5.3Q278.79 5.3 277.94 6.6L277.94 6.6Q277.13 7.85 277.13 10.15L277.13 10.15Q277.13 11.55 277.54 12.7L277.54 12.7Q277.99 13.8 278.69 14.4L278.69 14.4Q279.44 15 280.34 15L280.34 15Q281.04 15 281.63 14.65L281.63 14.65Q282.29 14.25 282.69 13.6L282.69 13.6 283.63 14.25Q283.04 15.2 282.29 15.65L282.29 15.65Q281.49 16.15 280.38 16.15ZM293.98 0L292.48 0 292.48-29.5 293.98-29.5 293.98 0ZM301.48 0L299.98 0 299.98-29.5 301.48-29.5 301.48 0ZM304.48 0L302.98 0 302.98-29.5 304.48-29.5 304.48 0ZM311.98 0L310.48 0 310.48-29.5 311.98-29.5 311.98 0ZM319.48 0L317.98 0 317.98-29.5 319.48-29.5 319.48 0ZM325.48 0L320.98 0 320.98-29.5 325.48-29.5 325.48 0ZM328.48 0L326.98 0 326.98-29.5 328.48-29.5 328.48 0ZM334.48 0L329.98 0 329.98-29.5 334.48-29.5 334.48 0ZM337.48 0L335.98 0 335.98-29.5 337.48-29.5 337.48 0ZM344.98 0L343.48 0 343.48-29.5 344.98-29.5 344.98 0ZM319.48 16.1L319.48 16.1Q318.33 16.1 317.43 15.55L317.43 15.55Q316.58 15 316.08 14L316.08 14Q315.53 13 315.53 11.7L315.53 11.7Q315.53 10.4 316.08 9.4L316.08 9.4Q316.58 8.4 317.43 7.85L317.43 7.85Q318.33 7.25 319.48 7.25L319.48 7.25Q320.63 7.25 321.48 7.85L321.48 7.85Q322.38 8.4 322.88 9.4L322.88 9.4Q323.38 10.4 323.38 11.7L323.38 11.7Q323.38 13 322.88 14L322.88 14Q322.38 15 321.48 15.55L321.48 15.55Q320.63 16.1 319.48 16.1ZM319.48 15L319.48 15Q320.18 15 320.78 14.55L320.78 14.55Q321.33 14.15 321.68 13.4L321.68 13.4Q321.98 12.6 321.98 11.65L321.98 11.65Q321.98 10.2 321.28 9.3L321.28 9.3Q320.58 8.4 319.48 8.4L319.48 8.4Q318.38 8.4 317.68 9.3L317.68 9.3Q316.98 10.2 316.98 11.65L316.98 11.65Q316.98 12.6 317.28 13.4L317.28 13.4Q317.63 14.15 318.18 14.55L318.18 14.55Q318.73 15 319.48 15ZM347.98 0L346.48 0 346.48-29.5 347.98-29.5 347.98 0ZM355.48 0L353.98 0 353.98-29.5 355.48-29.5 355.48 0ZM358.48 0L356.98 0 356.98-29.5 358.48-29.5 358.48 0ZM365.98 0L364.48 0 364.48-29.5 365.98-29.5 365.98 0ZM373.48 0L371.98 0 371.98-29.5 373.48-29.5 373.48 0ZM379.48 0L374.98 0 374.98-29.5 379.48-29.5 379.48 0ZM382.48 0L380.98 0 380.98-29.5 382.48-29.5 382.48 0ZM385.48 0L383.98 0 383.98-29.5 385.48-29.5 385.48 0ZM391.48 0L386.98 0 386.98-29.5 391.48-29.5 391.48 0ZM398.98 0L397.48 0 397.48-29.5 398.98-29.5 398.98 0ZM375.08 7.25L375.08 7.25Q376.43 7.25 377.33 8.2L377.33 8.2 376.73 9.2 376.68 9.4 376.53 9.3Q376.48 9.1 376.43 9L376.43 9Q376.33 8.85 376.08 8.7L376.08 8.7Q375.63 8.4 374.98 8.4L374.98 8.4Q374.33 8.4 373.73 8.75L373.73 8.75Q373.13 9.05 372.78 9.75L372.78 9.75Q372.38 10.45 372.38 11.45L372.38 11.45 372.38 15.95 371.03 15.95 371.03 7.45 372.43 7.45 372.38 9Q372.73 8.2 373.48 7.7L373.48 7.7Q374.23 7.25 375.08 7.25ZM401.98 0L400.48 0 400.48-29.5 401.98-29.5 401.98 0ZM409.48 0L407.98 0 407.98-29.5 409.48-29.5 409.48 0ZM412.48 0L410.98 0 410.98-29.5 412.48-29.5 412.48 0ZM419.98 0L418.48 0 418.48-29.5 419.98-29.5 419.98 0ZM427.48 0L425.98 0 425.98-29.5 427.48-29.5 427.48 0ZM430.48 0L428.98 0 428.98-29.5 430.48-29.5 430.48 0ZM433.48 0L431.98 0 431.98-29.5 433.48-29.5 433.48 0ZM439.48 0L434.98 0 434.98-29.5 439.48-29.5 439.48 0ZM445.48 0L440.98 0 440.98-29.5 445.48-29.5 445.48 0ZM452.98 0L451.48 0 451.48-29.5 452.98-29.5 452.98 0ZM430.68 14.1L431.08 15.15Q429.88 16.1 428.38 16.1L428.38 16.1Q426.98 16.1 426.38 15.25L426.38 15.25Q425.78 14.35 425.78 12.45L425.78 12.45Q425.78 12.1 425.83 11.35L425.83 11.35 426.03 8.55 424.13 8.55 424.13 7.45 426.08 7.45 426.23 5.2 427.68 4.95 427.88 4.95 427.88 5.05Q427.78 5.2 427.73 5.35L427.73 5.35Q427.63 5.5 427.63 5.75L427.63 5.75 427.43 7.45 430.23 7.45 430.23 8.55 427.33 8.55 427.18 11.45Q427.13 12.2 427.13 12.4L427.13 12.4Q427.13 13.9 427.48 14.45L427.48 14.45Q427.83 14.95 428.58 14.95L428.58 14.95Q429.13 14.95 429.63 14.75L429.63 14.75Q430.08 14.55 430.68 14.1L430.68 14.1ZM455.98 0L454.48 0 454.48-29.5 455.98-29.5 455.98 0ZM463.48 0L461.98 0 461.98-29.5 463.48-29.5 463.48 0ZM466.48 0L464.98 0 464.98-29.5 466.48-29.5 466.48 0ZM473.98 0L472.48 0 472.48-29.5 473.98-29.5 473.98 0ZM481.48 0L479.98 0 479.98-29.5 481.48-29.5 481.48 0ZM487.48 0L482.98 0 482.98-29.5 487.48-29.5 487.48 0ZM490.48 0L488.98 0 488.98-29.5 490.48-29.5 490.48 0ZM496.48 0L491.98 0 491.98-29.5 496.48-29.5 496.48 0ZM503.98 0L502.48 0 502.48-29.5 503.98-29.5 503.98 0ZM506.98 0L505.48 0 505.48-29.5 506.98-29.5 506.98 0ZM481.88 16.15L481.88 16.15Q479.98 16.15 478.88 15L478.88 15Q477.73 13.85 477.73 11.75L477.73 11.75Q477.73 10.35 478.28 9.3L478.28 9.3Q478.78 8.3 479.68 7.8L479.68 7.8Q480.53 7.25 481.63 7.25L481.63 7.25Q483.18 7.25 484.13 8.25L484.13 8.25Q485.08 9.3 485.08 11.3L485.08 11.3Q485.08 11.5 485.08 11.9L485.08 11.9 479.03 11.9Q479.08 13.45 479.88 14.25L479.88 14.25Q480.68 15.05 481.93 15.05L481.93 15.05Q483.28 15.05 484.13 14.1L484.13 14.1 484.88 14.85Q483.78 16.15 481.88 16.15ZM479.08 10.85L483.73 10.85Q483.73 9.65 483.13 8.95L483.13 8.95Q482.53 8.25 481.53 8.25L481.53 8.25Q480.63 8.25 479.93 8.9L479.93 8.9Q479.23 9.55 479.08 10.85L479.08 10.85ZM509.97 0L508.47 0 508.47-29.5 509.97-29.5 509.97 0ZM517.47 0L515.97 0 515.97-29.5 517.47-29.5 517.47 0ZM520.47 0L518.97 0 518.97-29.5 520.47-29.5 520.47 0ZM527.97 0L526.47 0 526.47-29.5 527.97-29.5 527.97 0ZM535.47 0L533.97 0 533.97-29.5 535.47-29.5 535.47 0ZM538.47 0L536.97 0 536.97-29.5 538.47-29.5 538.47 0ZM548.97 0L544.47 0 544.47-29.5 548.97-29.5 548.97 0ZM554.97 0L550.47 0 550.47-29.5 554.97-29.5 554.97 0ZM557.97 0L556.47 0 556.47-29.5 557.97-29.5 557.97 0ZM560.97 0L559.47 0 559.47-29.5 560.97-29.5 560.97 0ZM531.77 15.95L531.77 15.05 537.02 8.65 532.12 8.65 532.12 7.45 538.72 7.45 538.72 8.35 533.57 14.8 538.37 14.8Q538.67 14.8 538.82 14.75L538.82 14.75Q538.92 14.7 539.07 14.6L539.07 14.6 539.17 14.6 539.17 15.95 531.77 15.95Z" opacity="1" transform="matrix(1,0,0,1,0,0)" fill="#f7b107" class="undefined-text-0" data-fill-palette-color="primary" id="text-0"></path></svg></g></svg></g><g transform="matrix(1,0,0,1,0,39.782451666823526)"><svg viewBox="0 0 395.52 19.89000282352941" height="19.89000282352941" width="395.52"><g transform="matrix(1,0,0,1,0,0)"><svg width="395.52" viewBox="2.65 -43.65 877.94 44.15" height="19.89000282352941" data-palette-color="#fab307"><path d="M35.1-2.2L33.95 0.05 24.1 0.05 24.1-16.65Q24.1-19.3 23.25-20.38 22.4-21.45 20.3-21.45L20.3-21.45Q18.75-21.45 17.2-20.9 15.65-20.35 13.6-18.8L13.6-18.8 13.6-3.85 18.1-2.2 16.95 0.05 2.65 0.05 2.65-1.75 7.1-5.3 7.1-18.9 2.65-21.55 2.65-23.35 11.55-27.6 13.3-21.25 20.2-26.75Q21.35-27.15 23-27.15L23-27.15Q26.5-27.15 28.55-25.08 30.6-23 30.6-19.45L30.6-19.45 30.6-3.9 35.1-2.2ZM91.34-27.15Q94.74-27.15 97.41-25.43 100.09-23.7 101.59-20.75 103.09-17.8 103.09-14.2L103.09-14.2Q103.09-10.3 100.71-6.93 98.34-3.55 94.74-1.53 91.14 0.5 87.79 0.5L87.79 0.5Q84.44 0.5 81.76-1.23 79.09-2.95 77.56-5.9 76.04-8.85 76.04-12.45L76.04-12.45Q76.04-16.35 78.41-19.73 80.79-23.1 84.39-25.13 87.99-27.15 91.34-27.15L91.34-27.15ZM88.44-22.6Q83.04-22.6 83.04-14.85L83.04-14.85Q83.04-10.2 85.01-7.1 86.99-4 90.69-4L90.69-4Q93.34-4 94.69-6 96.04-8 96.04-11.85L96.04-11.85Q96.04-16.45 94.06-19.53 92.09-22.6 88.44-22.6L88.44-22.6ZM161.63-27.15Q165.03-27.15 167.7-25.43 170.38-23.7 171.88-20.75 173.38-17.8 173.38-14.2L173.38-14.2Q173.38-10.3 171-6.93 168.63-3.55 165.03-1.53 161.43 0.5 158.08 0.5L158.08 0.5Q154.73 0.5 152.05-1.23 149.38-2.95 147.85-5.9 146.33-8.85 146.33-12.45L146.33-12.45Q146.33-16.35 148.7-19.73 151.08-23.1 154.68-25.13 158.28-27.15 161.63-27.15L161.63-27.15ZM158.73-22.6Q153.33-22.6 153.33-14.85L153.33-14.85Q153.33-10.2 155.3-7.1 157.28-4 160.98-4L160.98-4Q163.63-4 164.98-6 166.33-8 166.33-11.85L166.33-11.85Q166.33-16.45 164.35-19.53 162.38-22.6 158.73-22.6L158.73-22.6ZM235.66-27.15Q238.41-27.15 240.66-25.43 242.91-23.7 244.16-20.73 245.41-17.75 245.41-14.2L245.41-14.2Q245.41-10.3 243.04-6.93 240.66-3.55 237.06-1.53 233.46 0.5 230.11 0.5L230.11 0.5Q228.06 0.5 226.29-0.38 224.51-1.25 223.16-2.85L223.16-2.85 220.96 0 218.81 0 218.81-35.4 214.36-38.5 214.36-40.3 223.16-43.65 225.31-43.65 225.31-21.6 231.76-26.75Q233.36-27.15 235.61-27.15L235.61-27.15 235.66-27.15ZM233.01-4Q235.71-4 237.06-5.98 238.41-7.95 238.41-11.8L238.41-11.8Q238.41-16.3 236.99-19.38 235.56-22.45 232.96-22.45L232.96-22.45Q231.11-22.45 229.39-21.78 227.66-21.1 225.36-19.15L225.36-19.15 225.36-10.25Q225.36-7.6 227.34-5.8 229.31-4 233.01-4L233.01-4ZM354.04-5.6Q354.04-6.9 352.54-8.03 351.04-9.15 347.94-10.8L347.94-10.8Q345.29-12.2 343.71-13.2 342.14-14.2 341.01-15.53 339.89-16.85 339.89-18.45L339.89-18.45Q339.89-20.25 341.44-22.3 342.99-24.35 345.26-25.75 347.54-27.15 349.44-27.15L349.44-27.15Q351.79-27.15 354.89-26.58 357.99-26 359.39-25.3L359.39-25.3 359.39-17.45 357.24-17.45Q355.69-20.4 353.64-22.08 351.59-23.75 349.39-23.75L349.39-23.75Q347.94-23.75 347.06-22.98 346.19-22.2 346.19-21.05L346.19-21.05Q346.19-19.6 347.74-18.45 349.29-17.3 352.54-15.55L352.54-15.55Q355.09-14.25 356.64-13.28 358.19-12.3 359.29-11.03 360.39-9.75 360.39-8.2L360.39-8.2Q360.39-6.35 358.76-4.33 357.14-2.3 354.81-0.9 352.49 0.5 350.54 0.5L350.54 0.5Q348.04 0.5 344.56-0.1 341.09-0.7 339.64-1.35L339.64-1.35 339.64-9.25 341.79-9.25Q343.49-6.25 345.84-4.58 348.19-2.9 350.59-2.9L350.59-2.9Q352.14-2.9 353.09-3.7 354.04-4.5 354.04-5.6L354.04-5.6ZM418.78-27.15Q422.18-27.15 424.85-25.43 427.53-23.7 429.03-20.75 430.53-17.8 430.53-14.2L430.53-14.2Q430.53-10.3 428.15-6.93 425.78-3.55 422.18-1.53 418.58 0.5 415.23 0.5L415.23 0.5Q411.88 0.5 409.2-1.23 406.53-2.95 405-5.9 403.48-8.85 403.48-12.45L403.48-12.45Q403.48-16.35 405.85-19.73 408.23-23.1 411.83-25.13 415.43-27.15 418.78-27.15L418.78-27.15ZM415.88-22.6Q410.48-22.6 410.48-14.85L410.48-14.85Q410.48-10.2 412.45-7.1 414.43-4 418.13-4L418.13-4Q420.78-4 422.13-6 423.48-8 423.48-11.85L423.48-11.85Q423.48-16.45 421.5-19.53 419.53-22.6 415.88-22.6L415.88-22.6ZM487.41-2.2L486.26 0.05 471.96 0.05 471.96-1.75 476.41-5.3 476.41-35.4 471.96-38.5 471.96-40.3 480.76-43.65 482.91-43.65 482.91-3.9 487.41-2.2ZM559.05-2.25L557.9 0 548.05 0 548.05-5.05 541.85 0.1Q540.9 0.5 539.05 0.5L539.05 0.5Q535.55 0.5 533.5-1.58 531.45-3.65 531.45-7.2L531.45-7.2 531.45-18.9 527-21.5 527-23.3 535.8-27.5 537.95-27.5 537.95-9.95Q537.95-7.25 538.8-6.18 539.65-5.1 541.75-5.1L541.75-5.1Q543.2-5.1 544.65-5.65 546.1-6.2 548.05-7.75L548.05-7.75 548.05-18.9 543.6-21.5 543.6-23.3 552.4-27.5 554.55-27.5 554.55-3.9 559.05-2.25ZM619.54-3.9L614.49 0.1Q613.24 0.5 611.44 0.5L611.44 0.5Q607.14 0.5 605.16-1.68 603.19-3.85 603.19-8.4L603.19-8.4 603.19-22.85 597.79-22.85 597.79-25 607.54-36.2 609.69-36.2 609.69-25.15 618.69-25.15 618.69-22.85 609.69-22.85 609.69-8Q609.69-4.05 613.59-4.05L613.59-4.05Q614.64-4.05 615.59-4.48 616.54-4.9 618.04-6L618.04-6 619.54-3.9ZM674.83-2.25L673.68 0 659.38 0 659.38-1.8 663.83-5.35 663.83-19.35 659.38-22.4 659.38-24.2 668.18-27.6 670.33-27.6 670.33-3.9 674.83-2.25ZM666.88-42.6Q668.53-42.6 669.58-41.43 670.63-40.25 670.63-38.55L670.63-38.55Q670.63-37.35 669.88-36.27 669.13-35.2 667.98-34.58 666.83-33.95 665.73-33.95L665.73-33.95Q664.13-33.95 663.08-35.1 662.03-36.25 662.03-38L662.03-38Q662.03-39.2 662.78-40.28 663.53-41.35 664.68-41.98 665.83-42.6 666.88-42.6L666.88-42.6ZM731.56-27.15Q734.96-27.15 737.64-25.43 740.31-23.7 741.81-20.75 743.31-17.8 743.31-14.2L743.31-14.2Q743.31-10.3 740.94-6.93 738.56-3.55 734.96-1.53 731.36 0.5 728.01 0.5L728.01 0.5Q724.66 0.5 721.99-1.23 719.31-2.95 717.79-5.9 716.26-8.85 716.26-12.45L716.26-12.45Q716.26-16.35 718.64-19.73 721.01-23.1 724.61-25.13 728.21-27.15 731.56-27.15L731.56-27.15ZM728.66-22.6Q723.26-22.6 723.26-14.85L723.26-14.85Q723.26-10.2 725.24-7.1 727.21-4 730.91-4L730.91-4Q733.56-4 734.91-6 736.26-8 736.26-11.85L736.26-11.85Q736.26-16.45 734.29-19.53 732.31-22.6 728.66-22.6L728.66-22.6ZM818.25-2.2L817.1 0.05 807.25 0.05 807.25-16.65Q807.25-19.3 806.4-20.38 805.55-21.45 803.45-21.45L803.45-21.45Q801.9-21.45 800.35-20.9 798.8-20.35 796.75-18.8L796.75-18.8 796.75-3.85 801.25-2.2 800.1 0.05 785.8 0.05 785.8-1.75 790.25-5.3 790.25-18.9 785.8-21.55 785.8-23.35 794.7-27.6 796.45-21.25 803.35-26.75Q804.5-27.15 806.15-27.15L806.15-27.15Q809.65-27.15 811.7-25.08 813.75-23 813.75-19.45L813.75-19.45 813.75-3.9 818.25-2.2ZM874.24-5.6Q874.24-6.9 872.74-8.03 871.24-9.15 868.14-10.8L868.14-10.8Q865.49-12.2 863.91-13.2 862.34-14.2 861.21-15.53 860.09-16.85 860.09-18.45L860.09-18.45Q860.09-20.25 861.64-22.3 863.19-24.35 865.46-25.75 867.74-27.15 869.64-27.15L869.64-27.15Q871.99-27.15 875.09-26.58 878.19-26 879.59-25.3L879.59-25.3 879.59-17.45 877.44-17.45Q875.89-20.4 873.84-22.08 871.79-23.75 869.59-23.75L869.59-23.75Q868.14-23.75 867.26-22.98 866.39-22.2 866.39-21.05L866.39-21.05Q866.39-19.6 867.94-18.45 869.49-17.3 872.74-15.55L872.74-15.55Q875.29-14.25 876.84-13.28 878.39-12.3 879.49-11.03 880.59-9.75 880.59-8.2L880.59-8.2Q880.59-6.35 878.96-4.33 877.34-2.3 875.01-0.9 872.69 0.5 870.74 0.5L870.74 0.5Q868.24 0.5 864.76-0.1 861.29-0.7 859.84-1.35L859.84-1.35 859.84-9.25 861.99-9.25Q863.69-6.25 866.04-4.58 868.39-2.9 870.79-2.9L870.79-2.9Q872.34-2.9 873.29-3.7 874.24-4.5 874.24-5.6L874.24-5.6Z" opacity="1" transform="matrix(1,0,0,1,0,0)" fill="#fab307" class="undefined-text-1" data-fill-palette-color="secondary" id="text-1"></path></svg></g></svg></g></svg></g></svg></g><g></g></svg></g></svg></g></svg></g><defs></defs></svg><rect width="395.52" height="59.67245449035294" fill="none" stroke="none" visibility="hidden"></rect></g></svg></g></svg>