<?xml version="1.0" standalone="no"?>
<!DOCTYPE svg PUBLIC "-//W3C//DTD SVG 20010904//EN"
 "http://www.w3.org/TR/2001/REC-SVG-20010904/DTD/svg10.dtd">
<svg version="1.0" xmlns="http://www.w3.org/2000/svg"
 width="894.000000pt" height="812.000000pt" viewBox="0 0 894.000000 812.000000"
 preserveAspectRatio="xMidYMid meet">
<metadata>
Created by potrace 1.16, written by Peter Selinger 2001-2019
</metadata>
<g transform="translate(0.000000,812.000000) scale(0.100000,-0.100000)"
fill="#000000" stroke="none">
<path d="M4374 7092 c-202 -181 -412 -415 -480 -536 l-24 -42 250 -249 c137
-137 248 -250 247 -252 -2 -1 -50 14 -108 33 -192 65 -408 180 -684 363 -80
53 -121 75 -123 66 -6 -25 68 -228 113 -312 24 -46 42 -83 39 -83 -3 0 -26 14
-50 31 -68 46 -239 125 -324 149 -341 95 -639 53 -969 -137 -318 -184 -775
-531 -758 -576 4 -11 483 -724 530 -787 l17 -25 213 212 c116 116 234 228 261
248 262 197 519 247 841 163 175 -45 280 -120 341 -242 31 -63 35 -82 36 -147
0 -161 -96 -310 -249 -387 -114 -58 -220 -75 -490 -80 -134 -2 -243 -7 -243
-11 0 -3 39 -183 87 -400 l87 -393 61 7 c33 3 110 15 170 25 185 31 233 34
326 15 121 -24 232 -81 325 -168 184 -171 252 -365 224 -635 -35 -331 -275
-542 -674 -592 -176 -23 -486 1 -671 52 -228 62 -387 122 -584 223 -435 221
-771 539 -952 900 l-71 140 7 -70 c25 -271 181 -640 428 -1010 95 -142 161
-224 290 -354 198 -201 379 -334 622 -457 438 -222 898 -269 1266 -131 208 78
411 230 546 408 174 228 240 435 250 779 5 174 1 266 -24 572 l-6 76 44 -10
c24 -6 130 -11 234 -12 218 0 312 16 463 80 269 114 449 311 708 774 107 192
138 242 197 312 114 136 304 227 477 228 332 1 742 -279 924 -630 96 -184 126
-305 133 -531 8 -236 -24 -406 -116 -617 -166 -383 -482 -672 -884 -806 -181
-60 -312 -80 -537 -79 -433 1 -692 93 -960 340 -52 48 -114 103 -138 121 l-42
34 0 -34 c0 -57 30 -218 57 -303 112 -356 391 -615 771 -715 570 -151 1293 67
1645 498 250 305 431 753 504 1247 24 164 24 581 0 739 -121 785 -571 1300
-1252 1433 -134 26 -417 24 -545 -4 -52 -12 -104 -24 -115 -28 -11 -4 -5 5 15
21 47 37 129 120 164 166 l28 37 -17 53 c-40 121 -127 277 -338 606 l-149 233
-30 -28 c-16 -15 -65 -80 -108 -143 -86 -127 -163 -208 -261 -276 -138 -97
-260 -152 -419 -190 -74 -18 -330 -32 -330 -18 0 5 13 18 29 29 16 11 105 93
198 182 184 176 289 306 279 346 -16 67 -201 301 -355 450 -101 97 -231 197
-257 197 -6 0 -55 -40 -110 -88z m-355 -1441 c105 -82 327 -197 486 -250 243
-82 447 -115 705 -114 174 1 303 16 420 49 18 5 9 -6 -31 -39 -56 -45 -129
-132 -181 -213 -49 -76 -96 -179 -193 -424 -153 -383 -218 -504 -344 -633
-166 -172 -347 -253 -501 -227 -82 14 -182 63 -285 140 -79 59 -124 84 -317
174 -54 24 -98 49 -98 53 0 18 37 62 140 168 116 118 160 180 208 290 142 327
138 663 -12 971 -23 46 -40 84 -38 84 2 0 21 -13 41 -29z"/>
</g>
</svg>
