<svg version="1.1" id="Layer_1" xmlns="http://www.w3.org/2000/svg" xmlns:xlink="http://www.w3.org/1999/xlink" x="0px" y="0px"
	 width="100%" viewBox="0 0 500 500" enable-background="new 0 0 500 500" xml:space="preserve">
<path fill="#FFFFFF" opacity="1.000000" stroke="none" 
	d="
M219.000000,501.000000 
	C146.000015,501.000000 73.500038,501.000000 1.000039,501.000000 
	C1.000026,334.333405 1.000026,167.666779 1.000013,1.000128 
	C167.666565,1.000086 334.333130,1.000086 500.999756,1.000043 
	C500.999847,167.666534 500.999847,334.333069 500.999939,500.999817 
	C407.166656,501.000000 313.333344,501.000000 219.000000,501.000000 
M339.452545,330.269470 
	C346.056274,334.140106 344.178040,325.835388 347.300720,324.749054 
	C352.382721,327.393188 359.622986,324.970062 362.823395,319.417450 
	C366.976410,322.209045 368.343384,318.828796 370.490265,315.438293 
	C374.671692,316.636414 380.869659,313.422455 381.550079,310.253540 
	C383.744415,309.759247 386.280487,309.924683 387.408569,308.744446 
	C388.769745,307.320282 388.936615,304.754639 389.743561,302.310120 
	C391.184540,303.963715 392.128784,305.047272 393.577576,306.709808 
	C394.045197,303.076569 394.383728,300.446045 394.806488,297.161346 
	C396.559723,299.393555 397.722565,300.874115 398.885406,302.354645 
	C399.386230,301.997406 399.887024,301.640167 400.387848,301.282928 
	C398.996796,299.265198 397.871918,296.923431 396.051636,295.428284 
	C395.509430,294.982880 393.017181,296.911499 391.397949,297.763184 
	C391.040710,297.462372 390.369629,296.897308 389.341003,296.031189 
	C389.015350,298.267426 388.771301,299.943420 388.489319,301.879852 
	C379.901855,297.205750 381.002258,303.340179 381.140930,308.966095 
	C379.797974,307.150146 379.032654,306.115265 377.914185,304.602875 
	C377.407196,305.842316 377.204895,306.418121 376.942261,306.964905 
	C375.809570,309.323151 374.659180,311.672821 373.515228,314.025635 
	C372.088989,311.916687 370.569885,309.862457 369.280640,307.672852 
	C368.738098,306.751404 368.681152,305.544006 368.465057,304.705688 
	C369.958832,303.409058 371.137329,302.386047 372.315826,301.363068 
	C372.068939,301.009735 371.822052,300.656403 371.575134,300.303070 
	C370.257507,300.751190 368.939911,301.199280 367.632080,301.644043 
	C366.997833,300.342407 366.402100,299.119873 365.261841,296.779755 
	C364.518890,300.796356 363.991089,303.649811 363.494720,306.333252 
	C368.427734,307.583832 368.179779,312.634399 369.486816,316.705444 
	C368.090393,317.054626 366.693970,317.403809 365.132935,317.794159 
	C364.218597,315.700592 363.295288,313.586487 361.770660,310.095520 
	C360.902893,314.665100 360.328888,317.687683 359.503082,322.036102 
	C358.034393,319.110107 357.235596,317.518707 356.436798,315.927307 
	C355.266632,317.566650 355.414154,319.268097 354.785797,320.604797 
	C354.119659,322.021820 352.716339,323.092377 351.635040,324.314270 
	C351.125824,322.837433 350.197479,321.361511 350.194183,319.883606 
	C350.187256,316.758057 351.030609,313.600159 350.767487,310.520233 
	C350.656677,309.223267 348.628510,308.090149 347.471924,306.882538 
	C346.262054,308.186462 344.063904,309.471008 344.037933,310.798065 
	C343.974396,314.046143 344.914093,317.313873 344.861206,321.386871 
	C344.708923,321.684875 344.556641,321.982880 343.739838,321.860687 
	C342.264191,321.954651 339.572754,321.826996 339.508759,322.178223 
	C339.067505,324.598907 339.174896,327.119568 338.350647,330.361206 
	C336.818481,328.806671 335.286285,327.252136 333.754089,325.697601 
	C333.319183,324.622589 331.180176,325.551941 331.266968,325.865997 
	C331.852722,327.985016 332.910034,329.973663 333.791779,331.953094 
	C333.519073,332.307343 333.084106,332.872345 332.649139,333.437347 
	C333.068756,333.854919 333.488373,334.272461 333.907990,334.690033 
	C335.055573,333.564148 336.202454,332.437500 337.351074,331.312714 
	C337.922699,330.752991 338.497559,330.196594 339.452545,330.269470 
M81.522911,265.766022 
	C81.864151,267.387756 82.095222,269.042084 82.563866,270.626129 
	C86.776962,284.866577 96.571617,294.588654 108.755005,302.107666 
	C129.750778,315.065399 153.112015,320.529114 177.339249,323.025848 
	C203.334503,325.704834 229.136322,324.180786 254.922272,320.163483 
	C290.627838,314.600800 324.434753,303.778625 355.477661,285.072205 
	C372.020416,275.103516 386.759064,263.057190 397.396088,246.555908 
	C410.911224,225.589874 408.725128,203.100449 391.152313,185.717560 
	C378.859070,173.557114 363.513733,166.767395 347.265503,161.979553 
	C320.965912,154.229843 294.035278,152.213470 266.729523,153.819092 
	C236.186874,155.615021 206.335724,160.913116 177.469391,171.146881 
	C149.779434,180.963593 123.776695,193.927567 102.687355,214.911011 
	C88.963150,228.566254 79.094528,244.271866 81.522911,265.766022 
M294.708160,335.993805 
	C293.511810,338.270447 292.020050,340.458160 291.292084,342.875824 
	C291.062134,343.639526 293.459778,346.068848 293.664307,345.955078 
	C296.002502,344.654449 298.149078,343.009369 300.086304,341.640259 
	C301.854523,342.087830 304.341705,343.564850 305.814972,342.875336 
	C307.646851,342.018066 308.640900,339.370575 310.204620,337.208893 
	C310.916901,339.024628 311.374268,340.190552 311.844757,341.389893 
	C315.650055,340.414429 319.810913,339.890991 319.175751,334.950439 
	C318.925812,333.006165 316.803009,331.302673 315.052307,328.803101 
	C315.280334,327.712738 316.091003,325.355194 316.123352,322.987000 
	C316.137726,321.935516 314.706787,320.171051 313.702332,319.987640 
	C312.629608,319.791809 310.898254,320.795166 310.164948,321.795746 
	C309.359894,322.894287 308.710724,324.832001 309.138672,325.975555 
	C310.510223,329.640503 307.533936,331.292572 305.876099,333.164215 
	C303.941162,335.348694 301.091583,336.722931 298.702179,338.404175 
	C297.777100,337.703217 296.651093,336.849976 294.708160,335.993805 
M280.043243,345.319763 
	C280.412933,346.632141 280.782623,347.944519 281.457153,350.339050 
	C283.311737,346.758087 284.505859,344.452332 286.114471,341.346283 
	C286.854614,344.284607 287.305908,346.076172 287.757172,347.867767 
	C289.950256,342.326508 288.793243,339.407440 285.560150,339.906647 
	C284.046204,340.140411 282.498474,340.155121 280.005096,340.340576 
	C280.005096,341.015045 280.005096,342.736725 280.043243,345.319763 
M405.947205,298.126068 
	C408.352417,295.601562 406.758453,294.248199 404.610321,292.718872 
	C403.623352,292.016235 403.185120,290.542786 402.158112,288.862823 
	C401.579956,289.350159 400.441986,289.958923 399.842773,290.907837 
	C399.173981,291.967072 403.795502,298.138092 405.947205,298.126068 
z"/>
<path fill="#FECA13" opacity="1.000000" stroke="none" 
	d="
M81.378960,265.344299 
	C79.094528,244.271866 88.963150,228.566254 102.687355,214.911011 
	C123.776695,193.927567 149.779434,180.963593 177.469391,171.146881 
	C206.335724,160.913116 236.186874,155.615021 266.729523,153.819092 
	C294.035278,152.213470 320.965912,154.229843 347.265503,161.979553 
	C363.513733,166.767395 378.859070,173.557114 391.152313,185.717560 
	C408.725128,203.100449 410.911224,225.589874 397.396088,246.555908 
	C386.759064,263.057190 372.020416,275.103516 355.477661,285.072205 
	C324.434753,303.778625 290.627838,314.600800 254.922272,320.163483 
	C229.136322,324.180786 203.334503,325.704834 177.339249,323.025848 
	C153.112015,320.529114 129.750778,315.065399 108.755005,302.107666 
	C96.571617,294.588654 86.776962,284.866577 82.563866,270.626129 
	C82.095222,269.042084 81.864151,267.387756 81.378960,265.344299 
M333.241913,189.079880 
	C329.796143,192.325562 329.800110,192.335999 336.570496,195.762878 
	C335.532104,193.006699 334.781982,191.015717 334.306610,188.898941 
	C334.196838,188.922958 334.087036,188.946991 333.241913,189.079880 
M354.125061,200.191360 
	C357.468323,196.233383 353.330414,195.594345 351.563843,193.952988 
	C352.037750,196.288483 352.511627,198.623962 352.549469,201.701141 
	C344.576538,201.701141 336.603638,201.701141 328.630707,201.701141 
	C328.632080,202.155121 328.633423,202.609100 328.634766,203.063080 
	C333.749969,203.063080 338.865326,203.041809 343.980347,203.074570 
	C345.780548,203.086090 348.163971,202.525574 349.271362,203.443878 
	C352.756958,206.334305 354.709869,204.639618 357.203033,201.718842 
	C355.828522,201.327728 354.921661,201.069687 354.125061,200.191360 
M238.683197,227.714340 
	C239.635147,227.538513 240.587097,227.362701 241.549164,227.185013 
	C244.518845,233.348923 245.889709,233.803207 250.686752,229.893555 
	C256.789093,235.748917 260.707825,229.585556 265.096527,227.116211 
	C268.286102,228.878525 270.862000,232.189590 274.752808,229.843475 
	C272.039490,228.286484 269.407837,226.776367 266.782349,225.269791 
	C268.570923,222.114960 270.076599,219.717896 271.332611,217.196442 
	C275.553070,208.723892 276.226959,199.968521 272.694946,191.135010 
	C271.097473,187.139755 268.727997,183.688950 263.351074,185.282578 
	C273.804321,189.780396 274.691589,211.001541 264.929779,221.771805 
	C254.890381,210.540253 253.164459,197.889969 260.531036,186.190460 
	C260.929871,186.161057 261.328705,186.131653 261.727539,186.102264 
	C261.439056,185.620132 261.150574,185.138016 260.862061,184.655884 
	C260.582092,185.087189 260.302124,185.518494 259.291016,185.901901 
	C251.952316,190.348938 252.237076,197.505966 253.476410,204.390045 
	C254.442291,209.755219 256.845825,214.861572 258.694672,220.332184 
	C252.994232,220.210068 251.423889,224.483154 249.209900,229.098816 
	C246.330948,231.269272 245.919006,229.027451 245.468048,226.973831 
	C245.086517,225.236313 244.794174,223.479218 244.519913,222.033997 
	C242.306351,223.644608 240.637146,224.859116 238.807846,225.286453 
	C238.437698,224.483322 238.067535,223.680176 237.697388,222.877045 
	C237.060013,223.484177 236.059387,223.987274 235.850327,224.717087 
	C235.086929,227.382294 234.587509,230.123108 233.988647,232.835434 
	C233.598663,232.819580 233.208679,232.803726 232.818680,232.787872 
	C231.697754,229.502319 230.576828,226.216766 229.455887,222.931213 
	C229.041824,223.066101 228.627762,223.200974 228.213715,223.335846 
	C228.409393,224.747452 228.231339,226.366501 228.876450,227.528625 
	C230.341003,230.167053 232.210526,232.580673 233.915421,235.085693 
	C235.274063,232.712357 236.632690,230.339005 238.683197,227.714340 
M242.768402,282.251404 
	C245.862411,286.742676 249.912537,286.909821 254.029480,284.176208 
	C256.839905,282.310120 259.157166,279.701508 261.697876,277.428253 
	C261.815613,277.322906 261.962494,277.250092 262.095795,277.162109 
	C261.948181,277.108582 261.800568,277.055084 261.811127,277.058899 
	C258.489807,279.119629 255.409592,281.451752 251.985718,283.045715 
	C247.943497,284.927521 246.108963,283.186340 246.597198,278.794037 
	C249.107117,277.649078 251.479446,276.566864 254.502670,275.187744 
	C247.959183,271.063202 243.846405,273.870300 241.591400,282.367615 
	C240.742111,283.284058 239.892822,284.200500 238.250961,285.183960 
	C234.882065,287.105865 232.981766,286.339294 232.736877,282.266968 
	C232.598099,279.959473 232.348434,277.654510 232.046219,275.361908 
	C231.614563,272.087372 231.497421,269.026489 235.609909,268.480988 
	C234.056961,267.641602 232.208908,267.205841 231.385178,266.043915 
	C230.508789,264.807739 230.602570,262.883728 230.272751,261.260071 
	C229.809418,261.298462 229.346100,261.336823 228.882767,261.375214 
	C228.708572,263.415588 228.534393,265.455933 228.340637,267.725494 
	C227.004654,268.270874 225.552963,268.863464 223.360321,269.758545 
	C225.596985,270.020844 227.002197,270.185669 228.820404,270.398895 
	C229.025848,275.001617 229.222885,279.415924 229.037689,284.374207 
	C228.040680,285.650635 227.043655,286.927063 226.724670,287.335449 
	C224.264481,283.597046 222.102463,280.311707 219.940460,277.026367 
	C219.428528,277.011383 218.916595,276.996399 218.404678,276.981415 
	C218.116089,279.126007 217.827515,281.270599 217.507965,283.645386 
	C219.377441,283.289673 220.532455,283.069916 220.962845,282.988037 
	C222.132584,285.757751 223.100021,288.048401 224.067459,290.339081 
	C226.084976,288.898834 228.094971,287.447723 230.130402,286.033264 
	C230.361465,285.872681 230.735458,285.917816 231.189178,286.530914 
	C234.479111,289.653839 237.082367,289.192719 239.354736,284.509277 
	C240.268982,283.690430 241.183228,282.871613 242.768402,282.251404 
M202.772537,289.624359 
	C198.611023,298.594147 192.788406,306.078247 184.012756,311.037231 
	C173.483978,316.986877 164.299179,313.625702 162.205002,301.796600 
	C160.813354,293.935699 161.476898,285.628571 161.891495,277.555664 
	C162.238632,270.796417 164.049683,264.919769 171.993774,262.357941 
	C176.174072,261.009888 179.547623,257.057983 183.177475,254.147186 
	C185.062347,252.635666 186.712402,250.831284 188.468536,249.159195 
	C188.805695,249.325394 189.142853,249.491592 189.480011,249.657791 
	C188.064209,255.408997 186.648407,261.160187 185.232590,266.911407 
	C185.656799,267.102539 186.081009,267.293701 186.505219,267.484863 
	C187.367310,266.124756 188.642197,264.869263 189.018112,263.385925 
	C190.443207,257.762695 191.573486,252.064926 192.820923,246.396545 
	C194.350861,239.444565 199.674240,229.920166 207.685226,230.270569 
	C209.120209,232.845215 210.114014,236.533081 211.496017,236.684799 
	C213.881027,236.946625 216.507278,235.010742 219.333450,233.876099 
	C220.840698,234.074982 223.242996,234.391953 225.645279,234.708939 
	C225.864716,234.217880 226.084152,233.726837 226.303574,233.235779 
	C219.368103,232.919662 223.404861,226.811371 220.725494,223.618927 
	C214.358368,225.940125 208.071396,228.232117 202.793472,230.156250 
	C203.903839,220.827591 205.795181,211.865967 205.823944,202.898361 
	C205.857971,192.288498 199.008728,185.503387 189.258682,185.215591 
	C186.951630,185.288147 184.555252,184.979675 182.352264,185.496124 
	C169.652603,188.473312 159.569931,195.869492 150.522797,204.899536 
	C152.402023,204.424332 153.992371,203.477936 155.443253,202.351822 
	C165.736313,194.362717 176.199997,186.774338 190.766556,186.864685 
	C197.259048,187.925995 200.357101,192.409958 201.896942,198.229568 
	C204.053802,206.381088 202.551041,214.355209 200.617554,222.357880 
	C199.098557,228.645004 196.205170,232.852371 189.430649,234.701874 
	C183.686157,236.270203 178.380814,239.447083 172.623291,242.027740 
	C170.932831,228.280869 169.308899,215.075043 167.684967,201.869232 
	C166.997513,201.923386 166.310059,201.977539 165.622604,202.031693 
	C165.519806,203.212708 165.216034,204.416214 165.345276,205.571259 
	C166.639603,217.139771 167.870575,228.718674 169.444229,240.250336 
	C169.842865,243.171509 169.081299,244.766098 166.847870,246.509369 
	C163.594879,249.048431 160.352005,251.780304 157.782394,254.974976 
	C153.381287,260.446686 154.506546,264.122772 160.865524,266.816650 
	C160.389084,268.556122 159.840210,270.294861 159.439362,272.067078 
	C156.992722,282.884216 155.593079,293.745087 159.410629,304.531036 
	C162.535202,313.359039 169.165833,317.381744 178.084198,315.342133 
	C191.651428,312.239410 199.485840,302.821808 204.698593,289.757660 
	C205.981567,289.870239 207.524796,290.490967 208.495514,289.993835 
	C210.803909,288.811584 213.930649,287.495300 214.659943,285.483826 
	C215.297302,283.725922 213.113495,280.945160 212.176056,278.616302 
	C209.926849,279.902527 207.218750,280.773926 205.567474,282.600647 
	C204.138046,284.182007 203.907837,286.847351 202.772537,289.624359 
M264.702423,284.355194 
	C265.398743,285.906830 266.088989,287.461273 266.792908,289.009430 
	C267.694855,290.993225 268.434082,293.089722 269.639679,294.869202 
	C269.937012,295.308044 272.379456,295.098785 272.760559,294.501465 
	C273.469116,293.390930 273.892944,291.627838 273.533997,290.399872 
	C272.637573,287.333008 271.236084,284.413727 270.085999,281.556366 
	C269.269257,281.848724 268.038422,282.289276 266.282684,282.917755 
	C270.111816,272.292053 270.111816,272.292053 267.883240,272.267456 
	C265.988190,275.862335 264.547302,278.929504 262.791321,281.804199 
	C261.699951,283.590881 260.717499,284.830017 264.702423,284.355194 
M143.826401,211.285080 
	C140.895386,215.199539 137.620605,218.958878 136.933670,223.886124 
	C137.398697,224.115921 137.863724,224.345703 138.328751,224.575500 
	C141.523804,219.165863 144.718857,213.756226 147.913925,208.346573 
	C147.323135,207.792755 146.732346,207.238922 146.141556,206.685089 
	C145.514938,208.026001 144.888321,209.366913 143.826401,211.285080 
M340.654205,197.615540 
	C342.724609,197.890839 344.795013,198.166138 346.865448,198.441437 
	C346.894226,197.934601 346.923035,197.427765 346.951843,196.920929 
	C344.728943,197.182358 342.704071,191.570724 340.654205,197.615540 
M318.701660,201.903824 
	C320.237000,202.325012 321.772369,202.746201 323.307709,203.167389 
	C322.317871,200.158936 321.468414,196.542816 318.701660,201.903824 
M342.855042,184.349426 
	C343.221771,185.391724 343.588531,186.434021 343.955292,187.476318 
	C344.351288,187.228607 344.747284,186.980911 345.143280,186.733215 
	C344.586731,185.941040 344.030182,185.148880 342.855042,184.349426 
M325.227051,197.308029 
	C325.955048,196.752777 326.683075,196.197525 327.411072,195.642288 
	C327.048615,195.349991 326.686157,195.057709 326.323700,194.765411 
	C325.764709,195.639969 325.205719,196.514526 325.227051,197.308029 
M337.170074,195.067352 
	C337.434631,195.567795 337.699219,196.068237 337.963806,196.568680 
	C338.188293,196.386566 338.621033,196.064301 338.606659,196.042923 
	C338.284149,195.563797 337.912537,195.117767 337.170074,195.067352 
M329.104553,205.293289 
	C328.832306,205.548508 328.554901,205.798935 328.301270,206.071457 
	C328.286804,206.087036 328.466553,206.283401 328.555908,206.395645 
	C328.841156,206.128403 329.126404,205.861160 329.104553,205.293289 
M340.403961,186.482086 
	C340.403961,186.482086 340.522308,186.409973 340.403961,186.482086 
M258.391388,206.483932 
	C258.391388,206.483932 258.527466,206.396744 258.391388,206.483932 
z"/>
<path fill="#1E1E1E" opacity="1.000000" stroke="none" 
	d="
M295.116608,335.995270 
	C296.651093,336.849976 297.777100,337.703217 298.702179,338.404175 
	C301.091583,336.722931 303.941162,335.348694 305.876099,333.164215 
	C307.533936,331.292572 310.510223,329.640503 309.138672,325.975555 
	C308.710724,324.832001 309.359894,322.894287 310.164948,321.795746 
	C310.898254,320.795166 312.629608,319.791809 313.702332,319.987640 
	C314.706787,320.171051 316.137726,321.935516 316.123352,322.987000 
	C316.091003,325.355194 315.280334,327.712738 315.052307,328.803101 
	C316.803009,331.302673 318.925812,333.006165 319.175751,334.950439 
	C319.810913,339.890991 315.650055,340.414429 311.844757,341.389893 
	C311.374268,340.190552 310.916901,339.024628 310.204620,337.208893 
	C308.640900,339.370575 307.646851,342.018066 305.814972,342.875336 
	C304.341705,343.564850 301.854523,342.087830 300.086304,341.640259 
	C298.149078,343.009369 296.002502,344.654449 293.664307,345.955078 
	C293.459778,346.068848 291.062134,343.639526 291.292084,342.875824 
	C292.020050,340.458160 293.511810,338.270447 295.116608,335.995270 
z"/>
<path fill="#191919" opacity="1.000000" stroke="none" 
	d="
M345.450012,320.573669 
	C344.914093,317.313873 343.974396,314.046143 344.037933,310.798065 
	C344.063904,309.471008 346.262054,308.186462 347.471924,306.882538 
	C348.628510,308.090149 350.656677,309.223267 350.767487,310.520233 
	C351.030609,313.600159 350.187256,316.758057 350.194183,319.883606 
	C350.197479,321.361511 351.125824,322.837433 351.635010,324.314270 
	C352.716339,323.092377 354.119659,322.021820 354.785797,320.604797 
	C355.414154,319.268097 355.266632,317.566650 356.436798,315.927307 
	C357.235596,317.518707 358.034393,319.110107 359.503082,322.036102 
	C360.328888,317.687683 360.902893,314.665100 361.770660,310.095520 
	C363.295288,313.586487 364.218597,315.700592 365.132935,317.794159 
	C366.693970,317.403809 368.090393,317.054626 369.772583,316.397400 
	C370.058350,316.089386 370.009674,316.061218 370.009674,316.061218 
	C368.343384,318.828796 366.976410,322.209045 362.823395,319.417450 
	C359.622986,324.970062 352.382721,327.393188 347.300720,324.749054 
	C344.178040,325.835388 346.056274,334.140106 339.245911,329.974609 
	C339.039307,329.679779 339.105835,329.608093 339.105835,329.608093 
	C339.174896,327.119568 339.067505,324.598907 339.508759,322.178223 
	C339.572754,321.826996 342.264191,321.954651 344.226318,322.347839 
	C344.958557,322.081207 345.204315,321.327454 345.450012,320.573669 
z"/>
<path fill="#191919" opacity="1.000000" stroke="none" 
	d="
M370.068298,316.115723 
	C368.179779,312.634399 368.427734,307.583832 363.494720,306.333252 
	C363.991089,303.649811 364.518890,300.796356 365.261841,296.779755 
	C366.402100,299.119873 366.997833,300.342407 367.632080,301.644043 
	C368.939911,301.199280 370.257507,300.751190 371.575134,300.303070 
	C371.822052,300.656403 372.068939,301.009735 372.315826,301.363068 
	C371.137329,302.386047 369.958832,303.409058 368.465057,304.705688 
	C368.681152,305.544006 368.738098,306.751404 369.280640,307.672852 
	C370.569885,309.862457 372.088989,311.916687 373.515228,314.025635 
	C374.659180,311.672821 375.809570,309.323151 376.942261,306.964905 
	C377.204895,306.418121 377.407196,305.842316 377.914185,304.602875 
	C379.032654,306.115265 379.797974,307.150146 381.140930,308.966095 
	C381.002258,303.340179 379.901855,297.205750 388.489319,301.879852 
	C388.771301,299.943420 389.015350,298.267426 389.341003,296.031189 
	C390.369629,296.897308 391.040710,297.462372 391.397949,297.763184 
	C393.017181,296.911499 395.509430,294.982880 396.051636,295.428284 
	C397.871918,296.923431 398.996796,299.265198 400.387848,301.282928 
	C399.887024,301.640167 399.386230,301.997406 398.885406,302.354645 
	C397.722565,300.874115 396.559723,299.393555 394.806488,297.161346 
	C394.383728,300.446045 394.045197,303.076569 393.577576,306.709808 
	C392.128784,305.047272 391.184540,303.963715 389.743561,302.310120 
	C388.936615,304.754639 388.769745,307.320282 387.408569,308.744446 
	C386.280487,309.924683 383.744415,309.759247 381.550079,310.253540 
	C380.869659,313.422455 374.671692,316.636414 370.249969,315.749756 
	C370.009674,316.061218 370.058350,316.089386 370.068298,316.115723 
z"/>
<path fill="#191919" opacity="1.000000" stroke="none" 
	d="
M280.024170,344.889099 
	C280.005096,342.736725 280.005096,341.015045 280.005096,340.340576 
	C282.498474,340.155121 284.046204,340.140411 285.560150,339.906647 
	C288.793243,339.407440 289.950256,342.326508 287.757172,347.867767 
	C287.305908,346.076172 286.854614,344.284607 286.114471,341.346283 
	C284.505859,344.452332 283.311737,346.758087 281.457153,350.339050 
	C280.782623,347.944519 280.412933,346.632141 280.024170,344.889099 
z"/>
<path fill="#1E1E1E" opacity="1.000000" stroke="none" 
	d="
M338.728241,329.984650 
	C339.105835,329.608093 339.039307,329.679779 339.055145,329.659241 
	C338.497559,330.196594 337.922699,330.752991 337.351074,331.312714 
	C336.202454,332.437500 335.055573,333.564148 333.907990,334.690033 
	C333.488373,334.272461 333.068756,333.854919 332.649139,333.437347 
	C333.084106,332.872345 333.519073,332.307343 333.791779,331.953094 
	C332.910034,329.973663 331.852722,327.985016 331.266968,325.865997 
	C331.180176,325.551941 333.319183,324.622589 333.754089,325.697601 
	C335.286285,327.252136 336.818481,328.806671 338.728241,329.984650 
z"/>
<path fill="#1E1E1E" opacity="1.000000" stroke="none" 
	d="
M405.636353,298.294006 
	C403.795502,298.138092 399.173981,291.967072 399.842773,290.907837 
	C400.441986,289.958923 401.579956,289.350159 402.158112,288.862823 
	C403.185120,290.542786 403.623352,292.016235 404.610321,292.718872 
	C406.758453,294.248199 408.352417,295.601562 405.636353,298.294006 
z"/>
<path fill="#171202" opacity="1.000000" stroke="none" 
	d="
M190.033829,185.255264 
	C199.008728,185.503387 205.857971,192.288498 205.823944,202.898361 
	C205.795181,211.865967 203.903839,220.827591 202.793472,230.156250 
	C208.071396,228.232117 214.358368,225.940125 220.725494,223.618927 
	C223.404861,226.811371 219.368103,232.919662 226.303574,233.235779 
	C226.084152,233.726837 225.864716,234.217880 225.645279,234.708939 
	C223.242996,234.391953 220.840698,234.074982 219.333450,233.876099 
	C216.507278,235.010742 213.881027,236.946625 211.496017,236.684799 
	C210.114014,236.533081 209.120209,232.845215 207.685226,230.270569 
	C199.674240,229.920166 194.350861,239.444565 192.820923,246.396545 
	C191.573486,252.064926 190.443207,257.762695 189.018112,263.385925 
	C188.642197,264.869263 187.367310,266.124756 186.505219,267.484863 
	C186.081009,267.293701 185.656799,267.102539 185.232590,266.911407 
	C186.648407,261.160187 188.064209,255.408997 189.480011,249.657791 
	C189.142853,249.491592 188.805695,249.325394 188.468536,249.159195 
	C186.712402,250.831284 185.062347,252.635666 183.177475,254.147186 
	C179.547623,257.057983 176.174072,261.009888 171.993774,262.357941 
	C164.049683,264.919769 162.238632,270.796417 161.891495,277.555664 
	C161.476898,285.628571 160.813354,293.935699 162.205002,301.796600 
	C164.299179,313.625702 173.483978,316.986877 184.012756,311.037231 
	C192.788406,306.078247 198.611023,298.594147 203.181671,289.480774 
	C203.768936,289.645477 203.947083,289.953827 204.125229,290.262146 
	C199.485840,302.821808 191.651428,312.239410 178.084198,315.342133 
	C169.165833,317.381744 162.535202,313.359039 159.410629,304.531036 
	C155.593079,293.745087 156.992722,282.884216 159.439362,272.067078 
	C159.840210,270.294861 160.389084,268.556122 160.865524,266.816650 
	C154.506546,264.122772 153.381287,260.446686 157.782394,254.974976 
	C160.352005,251.780304 163.594879,249.048431 166.847870,246.509369 
	C169.081299,244.766098 169.842865,243.171509 169.444229,240.250336 
	C167.870575,228.718674 166.639603,217.139771 165.345276,205.571259 
	C165.216034,204.416214 165.519806,203.212708 165.622604,202.031693 
	C166.310059,201.977539 166.997513,201.923386 167.684967,201.869232 
	C169.308899,215.075043 170.932831,228.280869 172.623291,242.027740 
	C178.380814,239.447083 183.686157,236.270203 189.430649,234.701874 
	C196.205170,232.852371 199.098557,228.645004 200.617554,222.357880 
	C202.551041,214.355209 204.053802,206.381088 201.896942,198.229568 
	C200.357101,192.409958 197.259048,187.925995 190.424927,186.513504 
	C190.082520,185.859100 190.066025,185.556747 190.033829,185.255264 
M169.446274,254.932922 
	C168.259781,257.526855 167.073288,260.120819 165.360901,263.864502 
	C175.644791,258.982513 182.594955,252.400360 188.507263,244.661972 
	C189.202530,243.751984 189.076172,241.818832 188.650604,240.596802 
	C188.396713,239.867706 186.304459,238.928925 185.912292,239.228409 
	C181.662979,242.473618 176.744217,245.375351 173.865616,249.628082 
	C172.661240,251.407394 171.585876,253.048660 169.446274,254.932922 
M168.360962,250.965027 
	C168.923676,249.875595 169.486389,248.786148 170.049118,247.696716 
	C164.579025,250.910477 159.293137,254.226166 158.368744,260.963806 
	C158.218002,262.062469 159.769562,263.394684 160.879105,265.170929 
	C163.562744,260.032928 165.772629,255.801956 168.360962,250.965027 
M212.618149,230.186493 
	C212.618149,231.769623 212.618149,233.352737 212.618149,234.935867 
	C213.132629,235.083466 213.647110,235.231049 214.161575,235.378632 
	C215.581146,232.791580 217.000702,230.204529 218.420273,227.617462 
	C217.907333,227.171082 217.394394,226.724701 216.881454,226.278320 
	C215.558472,227.336502 214.235474,228.394684 212.618149,230.186493 
z"/>
<path fill="#171202" opacity="1.000000" stroke="none" 
	d="
M249.931427,228.833969 
	C251.423889,224.483154 252.994232,220.210068 258.694672,220.332184 
	C256.845825,214.861572 254.442291,209.755219 253.476410,204.390045 
	C252.237076,197.505966 251.952316,190.348938 259.643066,185.948669 
	C259.995117,185.995453 260.047638,185.987793 260.047638,185.987793 
	C253.164459,197.889969 254.890381,210.540253 264.929779,221.771805 
	C274.691589,211.001541 273.804321,189.780396 263.351074,185.282578 
	C268.727997,183.688950 271.097473,187.139755 272.694946,191.135010 
	C276.226959,199.968521 275.553070,208.723892 271.332611,217.196442 
	C270.076599,219.717896 268.570923,222.114960 266.782349,225.269791 
	C269.407837,226.776367 272.039490,228.286484 274.752808,229.843475 
	C270.862000,232.189590 268.286102,228.878525 265.096527,227.116211 
	C260.707825,229.585556 256.789093,235.748917 250.337158,229.642715 
	C249.968857,229.205917 249.950150,229.019943 249.931427,228.833969 
M261.909393,225.614822 
	C261.498383,225.107895 261.162323,224.265930 260.662933,224.154282 
	C258.870483,223.753464 257.022827,223.599594 255.196075,223.352386 
	C254.947937,225.512894 254.699814,227.673416 254.451660,229.833923 
	C256.314392,229.254761 258.216705,228.773773 260.019958,228.047012 
	C260.720581,227.764648 261.197571,226.927383 261.909393,225.614822 
z"/>
<path fill="#1D1702" opacity="1.000000" stroke="none" 
	d="
M264.340424,284.397827 
	C260.717499,284.830017 261.699951,283.590881 262.791321,281.804199 
	C264.547302,278.929504 265.988190,275.862335 267.883240,272.267456 
	C270.111816,272.292053 270.111816,272.292053 266.282684,282.917755 
	C268.038422,282.289276 269.269257,281.848724 270.085999,281.556366 
	C271.236084,284.413727 272.637573,287.333008 273.533997,290.399872 
	C273.892944,291.627838 273.469116,293.390930 272.760559,294.501465 
	C272.379456,295.098785 269.937012,295.308044 269.639679,294.869202 
	C268.434082,293.089722 267.694855,290.993225 266.792908,289.009430 
	C266.088989,287.461273 265.398743,285.906830 264.340424,284.397827 
z"/>
<path fill="#171202" opacity="1.000000" stroke="none" 
	d="
M229.419922,283.830261 
	C229.222885,279.415924 229.025848,275.001617 228.820404,270.398895 
	C227.002197,270.185669 225.596985,270.020844 223.360321,269.758545 
	C225.552963,268.863464 227.004654,268.270874 228.340637,267.725494 
	C228.534393,265.455933 228.708572,263.415588 228.882767,261.375214 
	C229.346100,261.336823 229.809418,261.298462 230.272751,261.260071 
	C230.602570,262.883728 230.508789,264.807739 231.385178,266.043915 
	C232.208908,267.205841 234.056961,267.641602 235.609909,268.480988 
	C231.497421,269.026489 231.614563,272.087372 232.046219,275.361908 
	C232.348434,277.654510 232.598099,279.959473 232.736877,282.266968 
	C232.981766,286.339294 234.882065,287.105865 238.638992,285.123199 
	C239.027023,285.062439 238.978088,285.038635 238.978088,285.038635 
	C237.082367,289.192719 234.479111,289.653839 231.055054,285.851624 
	C230.420593,284.724976 229.920258,284.277618 229.419922,283.830261 
z"/>
<path fill="#171202" opacity="1.000000" stroke="none" 
	d="
M242.183319,282.120209 
	C243.846405,273.870300 247.959183,271.063202 254.502670,275.187744 
	C251.479446,276.566864 249.107117,277.649078 246.597198,278.794037 
	C246.108963,283.186340 247.943497,284.927521 251.985718,283.045715 
	C255.409592,281.451752 258.489807,279.119629 261.811127,277.058899 
	C261.800568,277.055084 261.948181,277.108582 262.095795,277.162109 
	C261.962494,277.250092 261.815613,277.322906 261.697876,277.428253 
	C259.157166,279.701508 256.839905,282.310120 254.029480,284.176208 
	C249.912537,286.909821 245.862411,286.742676 242.449738,282.174896 
	C242.131058,282.098389 242.183319,282.120209 242.183319,282.120209 
M250.478928,275.593262 
	C250.478928,275.593262 250.405823,275.474976 250.478928,275.593262 
z"/>
<path fill="#221B02" opacity="1.000000" stroke="none" 
	d="
M204.411911,290.009888 
	C203.947083,289.953827 203.768936,289.645477 203.369171,289.185364 
	C203.907837,286.847351 204.138046,284.182007 205.567474,282.600647 
	C207.218750,280.773926 209.926849,279.902527 212.176056,278.616302 
	C213.113495,280.945160 215.297302,283.725922 214.659943,285.483826 
	C213.930649,287.495300 210.803909,288.811584 208.495514,289.993835 
	C207.524796,290.490967 205.981567,289.870239 204.411911,290.009888 
z"/>
<path fill="#2F2503" opacity="1.000000" stroke="none" 
	d="
M189.646255,185.235428 
	C190.066025,185.556747 190.082520,185.859100 190.066483,186.388885 
	C176.199997,186.774338 165.736313,194.362717 155.443253,202.351822 
	C153.992371,203.477936 152.402023,204.424332 150.522797,204.899536 
	C159.569931,195.869492 169.652603,188.473312 182.352264,185.496124 
	C184.555252,184.979675 186.951630,185.288147 189.646255,185.235428 
z"/>
<path fill="#221B02" opacity="1.000000" stroke="none" 
	d="
M229.228806,284.102234 
	C229.920258,284.277618 230.420593,284.724976 230.982040,285.519928 
	C230.735458,285.917816 230.361465,285.872681 230.130402,286.033264 
	C228.094971,287.447723 226.084976,288.898834 224.067459,290.339081 
	C223.100021,288.048401 222.132584,285.757751 220.962845,282.988037 
	C220.532455,283.069916 219.377441,283.289673 217.507965,283.645386 
	C217.827515,281.270599 218.116089,279.126007 218.404678,276.981415 
	C218.916595,276.996399 219.428528,277.011383 219.940460,277.026367 
	C222.102463,280.311707 224.264481,283.597046 226.724670,287.335449 
	C227.043655,286.927063 228.040680,285.650635 229.228806,284.102234 
z"/>
<path fill="#1D1702" opacity="1.000000" stroke="none" 
	d="
M237.991333,227.965668 
	C236.632690,230.339005 235.274063,232.712357 233.915421,235.085693 
	C232.210526,232.580673 230.341003,230.167053 228.876450,227.528625 
	C228.231339,226.366501 228.409393,224.747452 228.213715,223.335846 
	C228.627762,223.200974 229.041824,223.066101 229.455887,222.931213 
	C230.576828,226.216766 231.697754,229.502319 232.818680,232.787872 
	C233.208679,232.803726 233.598663,232.819580 233.988647,232.835434 
	C234.587509,230.123108 235.086929,227.382294 235.850327,224.717087 
	C236.059387,223.987274 237.060013,223.484177 237.697388,222.877045 
	C238.067535,223.680176 238.437698,224.483322 238.781982,225.925125 
	C238.501175,227.031082 238.246246,227.498367 237.991333,227.965668 
z"/>
<path fill="#221B02" opacity="1.000000" stroke="none" 
	d="
M238.337250,227.839996 
	C238.246246,227.498367 238.501175,227.031082 238.862030,226.318726 
	C240.637146,224.859116 242.306351,223.644608 244.519913,222.033997 
	C244.794174,223.479218 245.086517,225.236313 245.468048,226.973831 
	C245.919006,229.027451 246.330948,231.269272 249.570663,228.966400 
	C249.950150,229.019943 249.968857,229.205917 249.988159,229.672226 
	C245.889709,233.803207 244.518845,233.348923 241.549164,227.185013 
	C240.587097,227.362701 239.635147,227.538513 238.337250,227.839996 
z"/>
<path fill="#2F2503" opacity="1.000000" stroke="none" 
	d="
M144.044052,210.996460 
	C144.888321,209.366913 145.514938,208.026001 146.141556,206.685089 
	C146.732346,207.238922 147.323135,207.792755 147.913925,208.346573 
	C144.718857,213.756226 141.523804,219.165863 138.328751,224.575500 
	C137.863724,224.345703 137.398697,224.115921 136.933670,223.886124 
	C137.620605,218.958878 140.895386,215.199539 144.044052,210.996460 
z"/>
<path fill="#584606" opacity="1.000000" stroke="none" 
	d="
M354.014832,200.811646 
	C354.921661,201.069687 355.828522,201.327728 357.203033,201.718842 
	C354.709869,204.639618 352.756958,206.334305 349.271362,203.443878 
	C348.163971,202.525574 345.780548,203.086090 343.980347,203.074570 
	C338.865326,203.041809 333.749969,203.063080 328.634766,203.063080 
	C328.633423,202.609100 328.632080,202.155121 328.630707,201.701141 
	C336.603638,201.701141 344.576538,201.701141 353.027649,201.313171 
	C353.675507,200.887344 353.845184,200.849487 354.014832,200.811646 
z"/>
<path fill="#F6C412" opacity="1.000000" stroke="none" 
	d="
M334.031860,189.024734 
	C334.781982,191.015717 335.532104,193.006699 336.570496,195.762878 
	C329.800110,192.335999 329.796143,192.325562 333.621948,189.040161 
	C334.001953,189.000458 334.031860,189.024734 334.031860,189.024734 
z"/>
<path fill="#F6C412" opacity="1.000000" stroke="none" 
	d="
M340.477600,197.395752 
	C342.704071,191.570724 344.728943,197.182358 346.951843,196.920929 
	C346.923035,197.427765 346.894226,197.934601 346.865448,198.441437 
	C344.795013,198.166138 342.724609,197.890839 340.477600,197.395752 
z"/>
<path fill="#F6C412" opacity="1.000000" stroke="none" 
	d="
M318.803162,201.589951 
	C321.468414,196.542816 322.317871,200.158936 323.307709,203.167389 
	C321.772369,202.746201 320.237000,202.325012 318.803162,201.589951 
z"/>
<path fill="#F6C412" opacity="1.000000" stroke="none" 
	d="
M354.069946,200.501495 
	C353.845184,200.849487 353.675507,200.887344 353.245697,200.942337 
	C352.511627,198.623962 352.037750,196.288483 351.563843,193.952988 
	C353.330414,195.594345 357.468323,196.233383 354.069946,200.501495 
z"/>
<path fill="#F6C412" opacity="1.000000" stroke="none" 
	d="
M343.164337,184.353073 
	C344.030182,185.148880 344.586731,185.941040 345.143280,186.733215 
	C344.747284,186.980911 344.351288,187.228607 343.955292,187.476318 
	C343.588531,186.434021 343.221771,185.391724 343.164337,184.353073 
z"/>
<path fill="#F6C412" opacity="1.000000" stroke="none" 
	d="
M324.936890,197.348572 
	C325.205719,196.514526 325.764709,195.639969 326.323700,194.765411 
	C326.686157,195.057709 327.048615,195.349991 327.411072,195.642288 
	C326.683075,196.197525 325.955048,196.752777 324.936890,197.348572 
z"/>
<path fill="#171202" opacity="1.000000" stroke="none" 
	d="
M242.114258,282.075592 
	C241.183228,282.871613 240.268982,283.690430 239.166412,284.773956 
	C238.978088,285.038635 239.027023,285.062439 239.035278,285.089691 
	C239.892822,284.200500 240.742111,283.284058 241.887360,282.243896 
	C242.183319,282.120209 242.131058,282.098389 242.114258,282.075592 
z"/>
<path fill="#F6C412" opacity="1.000000" stroke="none" 
	d="
M337.360107,194.866425 
	C337.912537,195.117767 338.284149,195.563797 338.606659,196.042923 
	C338.621033,196.064301 338.188293,196.386566 337.963806,196.568665 
	C337.699219,196.068237 337.434631,195.567795 337.360107,194.866425 
z"/>
<path fill="#F6C412" opacity="1.000000" stroke="none" 
	d="
M260.008667,185.972626 
	C260.302124,185.518494 260.582092,185.087189 260.862061,184.655884 
	C261.150574,185.138016 261.439056,185.620132 261.727539,186.102264 
	C261.328705,186.131653 260.929871,186.161057 260.289337,186.089127 
	C260.047638,185.987793 259.995117,185.995453 260.008667,185.972626 
z"/>
<path fill="#F6C412" opacity="1.000000" stroke="none" 
	d="
M329.258118,205.443604 
	C329.126404,205.861160 328.841156,206.128403 328.555908,206.395630 
	C328.466553,206.283401 328.286804,206.087036 328.301270,206.071457 
	C328.554901,205.798935 328.832306,205.548508 329.258118,205.443604 
z"/>
<path fill="#F6C412" opacity="1.000000" stroke="none" 
	d="
M333.989624,188.985733 
	C334.087036,188.946991 334.196838,188.922958 334.169250,188.961838 
	C334.031860,189.024734 334.001953,189.000458 333.989624,188.985733 
z"/>
<path fill="#F6C412" opacity="1.000000" stroke="none" 
	d="
M340.463135,186.446030 
	C340.522308,186.409973 340.403961,186.482086 340.463135,186.446030 
z"/>
<path fill="#F6C412" opacity="1.000000" stroke="none" 
	d="
M258.459412,206.440338 
	C258.527466,206.396744 258.391388,206.483932 258.459412,206.440338 
z"/>
<path fill="#FFFFFF" opacity="1.000000" stroke="none" 
	d="
M345.155640,320.980286 
	C345.204315,321.327454 344.958557,322.081207 344.558594,322.557922 
	C344.556641,321.982880 344.708923,321.684875 345.155640,320.980286 
z"/>
<path fill="#F1C012" opacity="1.000000" stroke="none" 
	d="
M169.647583,254.622955 
	C171.585876,253.048660 172.661240,251.407394 173.865616,249.628082 
	C176.744217,245.375351 181.662979,242.473618 185.912292,239.228409 
	C186.304459,238.928925 188.396713,239.867706 188.650604,240.596802 
	C189.076172,241.818832 189.202530,243.751984 188.507263,244.661972 
	C182.594955,252.400360 175.644791,258.982513 165.360901,263.864502 
	C167.073288,260.120819 168.259781,257.526855 169.647583,254.622955 
z"/>
<path fill="#ECBB11" opacity="1.000000" stroke="none" 
	d="
M168.171753,251.268005 
	C165.772629,255.801956 163.562744,260.032928 160.879105,265.170929 
	C159.769562,263.394684 158.218002,262.062469 158.368744,260.963806 
	C159.293137,254.226166 164.579025,250.910477 170.049118,247.696716 
	C169.486389,248.786148 168.923676,249.875595 168.171753,251.268005 
z"/>
<path fill="#ECBB11" opacity="1.000000" stroke="none" 
	d="
M212.765320,229.819672 
	C214.235474,228.394684 215.558472,227.336502 216.881454,226.278320 
	C217.394394,226.724701 217.907333,227.171082 218.420273,227.617462 
	C217.000702,230.204529 215.581146,232.791580 214.161575,235.378632 
	C213.647110,235.231049 213.132629,235.083466 212.618149,234.935867 
	C212.618149,233.352737 212.618149,231.769623 212.765320,229.819672 
z"/>
<path fill="#F1C012" opacity="1.000000" stroke="none" 
	d="
M261.842896,225.978851 
	C261.197571,226.927383 260.720581,227.764648 260.019958,228.047012 
	C258.216705,228.773773 256.314392,229.254761 254.451660,229.833923 
	C254.699814,227.673416 254.947937,225.512894 255.196075,223.352386 
	C257.022827,223.599594 258.870483,223.753464 260.662933,224.154282 
	C261.162323,224.265930 261.498383,225.107895 261.842896,225.978851 
z"/>
<path fill="#1D1702" opacity="1.000000" stroke="none" 
	d="
M250.442383,275.534119 
	C250.405823,275.474976 250.478928,275.593262 250.442383,275.534119 
z"/>
</svg>