<?xml version="1.0" standalone="no"?>
<!DOCTYPE svg PUBLIC "-//W3C//DTD SVG 20010904//EN"
 "http://www.w3.org/TR/2001/REC-SVG-20010904/DTD/svg10.dtd">
<svg version="1.0" xmlns="http://www.w3.org/2000/svg"
 width="900.000000pt" height="780.000000pt" viewBox="0 0 900.000000 780.000000"
 preserveAspectRatio="xMidYMid meet">

<g transform="translate(0.000000,780.000000) scale(0.100000,-0.100000)"
fill="#000000" stroke="none">
<path d="M5406 7759 c27 -29 27 -31 7 -25 -13 4 -23 4 -23 -1 1 -14 50 -45 64
-40 8 3 20 0 27 -6 8 -7 -11 14 -41 46 -30 31 -56 57 -59 57 -3 0 8 -14 25
-31z"/>
<path d="M5325 7720 c-10 -11 -15 -23 -12 -26 8 -8 57 23 57 36 0 17 -26 11
-45 -10z"/>
<path d="M5530 7645 c13 -14 26 -25 28 -25 3 0 -5 11 -18 25 -13 14 -26 25
-28 25 -3 0 5 -11 18 -25z"/>
<path d="M5179 7563 c-65 -69 -83 -93 -72 -93 11 0 28 15 98 88 29 31 43 52
34 52 -8 0 -35 -21 -60 -47z"/>
<path d="M5556 7579 c60 -64 124 -111 141 -105 14 6 13 10 -7 31 -13 13 -26
22 -30 20 -3 -2 -29 16 -57 40 -58 51 -92 61 -47 14z"/>
<path d="M5216 7543 c-4 -4 135 -149 309 -323 l316 -316 -24 -22 -24 -23 -310
311 c-170 170 -313 310 -316 310 -12 0 -87 -77 -87 -89 0 -19 616 -627 631
-622 8 2 -16 -28 -53 -68 -64 -67 -79 -91 -60 -91 5 0 17 9 27 20 10 11 24 20
31 20 7 0 35 28 62 63 28 34 94 105 146 157 67 66 92 96 81 100 -11 4 -5 15
23 45 77 84 73 87 -9 8 -46 -46 -89 -83 -94 -83 -6 0 -145 135 -310 300 -164
165 -306 302 -315 305 -9 3 -20 2 -24 -2z"/>
<path d="M3990 7312 c0 -25 25 -58 34 -44 8 13 -10 62 -24 62 -5 0 -10 -8 -10
-18z"/>
<path d="M4880 7252 c-24 -21 -30 -31 -21 -37 9 -5 26 5 49 29 44 44 23 50
-28 8z"/>
<path d="M5923 7243 c26 -26 40 -34 47 -27 8 8 1 19 -24 37 -51 40 -66 33 -23
-10z"/>
<path d="M4010 7142 c0 -35 24 -179 31 -186 16 -18 19 0 8 65 -5 35 -12 79
-15 97 -3 17 -9 32 -14 32 -6 0 -10 -4 -10 -8z"/>
<path d="M4068 7133 c18 -43 75 -149 90 -165 32 -37 32 -15 -2 45 -19 34 -43
77 -53 96 -20 37 -49 57 -35 24z"/>
<path d="M6089 7128 c11 -15 11 -21 0 -35 -11 -15 -9 -14 9 1 12 11 21 20 20
20 -2 1 -12 8 -23 16 -19 14 -19 14 -6 -2z"/>
<path d="M4756 7072 c-3 -5 15 -28 40 -53 35 -34 41 -45 28 -49 -11 -4 26 -44
138 -146 223 -203 238 -215 249 -209 11 7 -173 198 -336 347 -60 56 -109 105
-107 110 3 10 -5 10 -12 0z"/>
<path d="M6920 6960 c0 -5 9 -10 21 -10 11 0 17 5 14 10 -3 6 -13 10 -21 10
-8 0 -14 -4 -14 -10z"/>
<path d="M6924 6905 c-4 -9 -1 -22 6 -28 10 -9 11 -9 5 3 -5 8 10 -5 33 -30
23 -25 41 -48 42 -52 0 -5 5 -8 10 -8 11 0 -62 114 -80 125 -6 3 -13 -1 -16
-10z"/>
<path d="M4105 6649 c9 -42 23 -69 35 -69 14 0 12 15 -4 54 -20 48 -40 58 -31
15z"/>
<path d="M4380 6651 c29 -41 67 -74 81 -69 16 5 -64 95 -85 95 -12 0 -12 -5 4
-26z"/>
<path d="M6550 6661 c-13 -11 -28 -17 -32 -15 -4 3 -8 0 -8 -5 0 -6 -3 -10 -7
-9 -5 2 -26 -8 -48 -22 -31 -19 -36 -26 -22 -28 10 -2 29 -1 41 2 27 7 116 73
116 86 0 15 -12 12 -40 -9z"/>
<path d="M7167 6649 c24 -40 59 -72 73 -67 13 4 -65 98 -81 98 -6 0 -2 -14 8
-31z"/>
<path d="M5540 6535 c-13 -14 -32 -25 -43 -25 -11 0 -35 -11 -53 -25 l-33 -26
-42 31 c-23 16 -45 27 -50 24 -9 -5 78 -114 91 -114 3 0 41 36 85 80 44 44 77
80 74 80 -3 0 -16 -11 -29 -25z"/>
<path d="M6356 6480 l-25 -16 324 -324 325 -325 27 17 c16 9 29 23 31 30 4 18
-618 635 -640 635 -10 0 -29 -8 -42 -17z"/>
<path d="M6080 6390 c-41 -21 -72 -39 -67 -40 10 0 147 69 147 75 0 7 3 8 -80
-35z"/>
<path d="M4230 6397 c0 -4 16 -41 36 -83 28 -57 34 -78 24 -84 -9 -6 -5 -19
16 -56 84 -143 258 -336 376 -418 77 -53 93 -41 21 16 -144 114 -305 320 -429
551 -24 45 -44 79 -44 74z"/>
<path d="M6103 6355 c-170 -81 -281 -118 -358 -121 -38 -1 -110 -9 -160 -18
-102 -18 -307 -21 -405 -5 -36 5 -104 14 -152 18 -72 8 -103 17 -180 54 -51
25 -112 57 -135 72 -24 14 -43 24 -43 21 0 -12 157 -101 233 -132 275 -112
556 -120 894 -26 55 16 75 18 81 9 4 -7 146 -149 314 -316 l306 -304 64 23
c96 34 258 103 258 110 0 3 -142 147 -315 320 -176 176 -313 320 -310 327 2 7
3 13 2 12 -1 0 -43 -20 -94 -44z"/>
<path d="M7357 6380 c6 -8 37 -51 71 -96 l61 -81 -77 -75 c-163 -159 -288
-252 -475 -354 -86 -47 -101 -67 -34 -45 44 15 242 128 326 188 72 51 222 173
287 236 26 24 40 45 37 55 -2 10 -23 37 -45 62 l-40 45 26 -40 c17 -26 22 -41
14 -44 -11 -4 -22 7 -116 115 -24 27 -40 42 -35 34z"/>
<path d="M5950 6330 c-8 -5 -10 -10 -5 -10 6 0 17 5 25 10 8 5 11 10 5 10 -5
0 -17 -5 -25 -10z"/>
<path d="M5720 6250 c-18 -12 -2 -12 25 0 13 6 15 9 5 9 -8 0 -22 -4 -30 -9z"/>
<path d="M3070 6164 c0 -5 317 -326 704 -712 478 -478 706 -700 711 -691 5 7
10 67 13 135 5 119 -2 196 -16 192 -10 -3 -1042 1026 -1042 1038 0 6 -17 16
-37 23 -46 15 -333 28 -333 15z"/>
<path d="M2419 6040 c-182 -59 -468 -190 -669 -307 -120 -70 -130 -77 -130
-88 0 -19 704 -713 721 -710 9 2 65 35 125 75 260 171 473 240 747 240 105 0
107 0 95 20 -7 11 -17 20 -23 20 -5 0 -183 175 -396 389 l-386 389 -84 -28z"/>
<path d="M2170 5991 c-96 -39 -300 -138 -300 -145 0 -10 55 6 99 28 39 20 295
131 341 149 8 3 2 6 -15 6 -16 0 -73 -17 -125 -38z"/>
<path d="M3880 6027 c0 -2 20 -14 44 -27 25 -12 85 -53 135 -90 53 -40 93 -64
97 -58 8 13 -28 43 -140 119 -48 32 -99 59 -112 59 -13 0 -24 -2 -24 -3z"/>
<path d="M5013 5566 c31 -24 232 -85 348 -106 60 -11 178 -24 262 -30 224 -16
378 -2 642 61 252 60 255 61 255 71 0 5 5 6 12 2 6 -4 8 -3 5 4 -9 14 -61 8
-189 -23 -207 -48 -384 -68 -618 -69 -244 -1 -392 16 -564 64 -57 16 -119 32
-137 35 -31 5 -32 4 -16 -9z"/>
<path d="M4420 5537 c0 -5 5 -17 11 -28 7 -14 7 -24 0 -33 -8 -9 -4 -30 14
-75 47 -115 66 -216 72 -378 3 -84 10 -153 14 -153 5 0 9 7 9 16 0 8 5 12 10
9 6 -4 10 27 10 87 0 68 -3 89 -11 78 -7 -11 -9 1 -4 44 5 45 4 56 -6 51 -9
-6 -10 1 -5 30 5 27 4 35 -4 30 -9 -6 -10 2 -5 26 5 26 4 31 -5 19 -9 -12 -10
-7 -5 20 5 27 4 32 -5 20 -9 -12 -10 -9 -5 13 4 20 2 27 -6 22 -8 -5 -9 -1 -4
15 5 16 4 20 -5 15 -9 -5 -10 -1 -5 15 5 16 4 20 -5 15 -9 -5 -10 -1 -5 15 5
17 4 21 -6 15 -9 -6 -11 -3 -6 9 5 11 3 15 -5 10 -8 -5 -9 -2 -5 10 4 11 3 15
-4 10 -7 -4 -9 0 -6 12 4 11 0 30 -8 44 -8 14 -14 21 -15 17z"/>
<path d="M1538 5418 c16 -29 91 -164 166 -299 75 -136 143 -250 152 -253 10
-4 -3 27 -33 82 -216 393 -290 522 -301 522 -10 0 -5 -17 16 -52z"/>
<path d="M6342 5259 c-40 -5 -116 -21 -169 -34 -53 -14 -100 -22 -106 -18 -6
4 -7 1 -2 -7 6 -9 2 -10 -15 -5 -17 5 -21 4 -15 -6 6 -9 3 -11 -8 -6 -22 8
-49 -2 -40 -16 4 -6 0 -8 -11 -4 -20 8 -99 -30 -141 -68 -120 -109 -218 -203
-226 -218 -20 -36 32 3 132 99 77 73 115 101 181 133 204 99 375 135 633 135
202 0 290 -13 459 -69 162 -52 342 -152 456 -252 70 -62 104 -75 51 -20 -142
147 -409 284 -659 338 -113 24 -400 34 -520 18z"/>
<path d="M3035 5219 c-183 -24 -378 -106 -585 -244 -128 -86 -174 -123 -134
-109 10 4 71 41 134 83 304 199 475 255 766 253 378 -3 644 -102 749 -281 33
-55 61 -78 45 -36 -61 161 -269 283 -556 325 -102 15 -339 20 -419 9z"/>
<path d="M6960 5161 c0 -12 54 -51 72 -51 10 0 9 -3 -2 -10 -8 -5 -10 -10 -4
-10 16 0 462 -448 469 -471 4 -10 10 -19 15 -19 5 0 62 -53 127 -117 64 -65
121 -117 126 -115 5 1 6 -2 2 -7 -3 -6 3 -14 13 -20 10 -5 29 -26 43 -45 16
-23 26 -31 31 -23 5 8 8 6 8 -6 0 -21 48 -69 61 -61 5 3 9 -2 9 -10 0 -8 5
-18 10 -21 15 -10 -31 107 -87 220 -184 370 -470 633 -814 750 -83 29 -79 28
-79 16z"/>
<path d="M4542 4820 c0 -14 2 -19 5 -12 2 6 2 18 0 25 -3 6 -5 1 -5 -13z"/>
<path d="M4531 4754 c0 -11 3 -14 6 -6 3 7 2 16 -1 19 -3 4 -6 -2 -5 -13z"/>
<path d="M4476 4554 c-9 -26 -14 -49 -12 -51 2 -2 11 17 20 43 9 26 14 49 12
51 -2 2 -11 -17 -20 -43z"/>
<path d="M5335 4554 c-9 -15 -12 -23 -6 -20 11 7 35 46 28 46 -3 0 -12 -12
-22 -26z"/>
<path d="M3986 4447 c-56 -99 -116 -171 -195 -231 -116 -89 -228 -130 -433
-156 -158 -21 -164 1 61 -224 l198 -198 69 43 c221 138 501 408 585 565 l22
41 -21 21 c-12 12 -25 22 -28 22 -3 0 -51 45 -107 100 -56 55 -102 100 -103
100 -1 0 -23 -37 -48 -83z"/>
<path d="M5284 4478 c-4 -7 -14 -24 -22 -38 -14 -24 -13 -24 3 -5 20 24 37 55
31 55 -3 0 -8 -6 -12 -12z"/>
<path d="M5230 4390 c-6 -11 -8 -20 -6 -20 3 0 10 9 16 20 6 11 8 20 6 20 -3
0 -10 -9 -16 -20z"/>
<path d="M5190 4320 c-6 -11 -8 -20 -6 -20 3 0 10 9 16 20 6 11 8 20 6 20 -3
0 -10 -9 -16 -20z"/>
<path d="M5216 4246 c-56 -101 -76 -140 -76 -150 0 -5 156 -166 348 -358 l347
-348 31 36 c35 41 114 181 96 170 -11 -7 -17 13 -13 38 1 5 -6 3 -15 -5 -10
-8 -16 -9 -13 -4 2 6 -148 161 -334 346 l-337 337 -34 -62z"/>
<path d="M5135 4220 c-9 -16 -13 -30 -11 -30 3 0 12 14 21 30 9 17 13 30 11
30 -3 0 -12 -13 -21 -30z"/>
<path d="M5106 4163 c-6 -14 -5 -15 5 -6 7 7 10 15 7 18 -3 3 -9 -2 -12 -12z"/>
<path d="M5037 4003 c4 -11 2 -14 -5 -9 -8 5 -10 1 -5 -10 5 -13 3 -15 -7 -9
-9 5 -11 4 -6 -4 5 -7 -3 -22 -19 -37 -16 -15 -24 -31 -21 -40 3 -8 2 -13 -2
-11 -4 2 -35 -44 -69 -102 -35 -58 -54 -96 -44 -83 11 12 26 22 35 22 18 0 43
37 108 160 57 107 63 126 44 133 -11 4 -13 1 -9 -10z"/>
<path d="M6151 3982 c-25 -48 -84 -202 -94 -242 -5 -21 -3 -26 12 -26 11 0 17
6 14 13 -3 7 0 13 7 13 6 0 9 4 6 9 -5 8 37 136 70 213 24 54 11 70 -15 20z"/>
<path d="M8061 4013 c-1 -7 -7 -10 -15 -7 -9 4 -3 -34 23 -140 27 -112 39
-146 53 -149 11 -3 18 -14 18 -28 0 -12 3 -19 6 -16 9 9 -47 247 -57 242 -4
-3 -5 5 -1 17 4 15 2 19 -7 13 -10 -5 -11 -2 -7 12 4 11 2 31 -3 44 -5 13 -10
19 -10 12z"/>
<path d="M2476 3988 c55 -179 86 -268 94 -273 19 -11 10 31 -29 145 -21 63
-42 123 -46 133 -11 25 -28 21 -19 -5z"/>
<path d="M4120 4000 c0 -7 -3 -10 -7 -7 -3 4 -40 -26 -82 -66 -42 -40 -113
-101 -159 -137 -77 -59 -96 -89 -40 -59 66 34 309 261 295 275 -4 4 -7 1 -7
-6z"/>
<path d="M7686 3988 c3 -12 16 -76 29 -142 13 -75 26 -121 35 -124 10 -4 12 6
7 44 -12 91 -51 233 -65 239 -10 4 -12 -1 -6 -17z"/>
<path d="M4819 3653 c-13 -16 -12 -17 4 -4 16 13 21 21 13 21 -2 0 -10 -8 -17
-17z"/>
<path d="M4861 3616 c-139 -185 -298 -278 -513 -301 l-66 -7 -256 101 c-141
56 -260 101 -265 101 -4 0 -8 -7 -8 -15 0 -12 3 -12 16 -2 9 8 12 8 8 1 -4 -7
10 -27 33 -48 22 -20 39 -36 37 -36 -1 0 160 -163 358 -362 204 -206 363 -359
367 -353 5 6 8 3 8 -6 0 -18 50 -69 68 -69 6 0 9 -7 5 -17 -4 -10 -2 -14 4
-10 16 10 31 -13 58 -94 73 -214 119 -444 135 -674 19 -273 -15 -463 -138
-764 -4 -10 -1 -13 11 -8 14 5 12 -3 -8 -43 -14 -28 -23 -50 -20 -50 10 0 66
121 60 130 -4 6 -1 10 5 10 6 0 8 5 5 10 -3 5 -2 10 4 10 27 0 103 279 121
449 23 208 0 492 -60 740 -23 96 -120 395 -126 389 -2 -3 1 -20 6 -38 6 -19 6
-38 1 -43 -5 -5 -36 56 -71 140 -34 81 -80 183 -102 227 -22 43 -37 80 -35 82
2 3 46 -3 98 -12 52 -9 180 -18 289 -21 254 -7 384 10 545 70 l60 22 -35 5
c-20 3 -34 11 -32 18 1 7 -3 12 -9 12 -7 0 -126 114 -265 254 l-253 254 -40
-52z"/>
<path d="M8152 3640 c0 -14 2 -19 5 -12 2 6 2 18 0 25 -3 6 -5 1 -5 -13z"/>
<path d="M4789 3613 c-13 -16 -12 -17 4 -4 9 7 17 15 17 17 0 8 -8 3 -21 -13z"/>
<path d="M8162 3585 c0 -16 2 -22 5 -12 2 9 2 23 0 30 -3 6 -5 -1 -5 -18z"/>
<path d="M5985 3520 c-9 -16 -13 -30 -11 -30 3 0 12 14 21 30 9 17 13 30 11
30 -3 0 -12 -13 -21 -30z"/>
<path d="M8172 3525 c0 -16 2 -22 5 -12 2 9 2 23 0 30 -3 6 -5 -1 -5 -18z"/>
<path d="M4674 3498 l-19 -23 23 19 c12 11 22 21 22 23 0 8 -8 2 -26 -19z"/>
<path d="M8182 3460 c0 -19 2 -27 5 -17 2 9 2 25 0 35 -3 9 -5 1 -5 -18z"/>
<path d="M4617 3461 c-41 -26 -46 -36 -10 -17 17 9 35 20 38 26 8 13 6 12 -28
-9z"/>
<path d="M5945 3454 c-9 -15 -12 -23 -6 -20 11 7 35 46 28 46 -3 0 -12 -12
-22 -26z"/>
<path d="M4520 3410 c-8 -5 -10 -10 -5 -10 6 0 17 5 25 10 8 5 11 10 5 10 -5
0 -17 -5 -25 -10z"/>
<path d="M5884 3373 c-21 -27 -28 -39 -15 -28 24 21 66 75 58 75 -3 0 -22 -21
-43 -47z"/>
<path d="M8193 3385 c0 -22 2 -30 4 -17 2 12 2 30 0 40 -3 9 -5 -1 -4 -23z"/>
<path d="M4408 3373 c7 -3 16 -2 19 1 4 3 -2 6 -13 5 -11 0 -14 -3 -6 -6z"/>
<path d="M8203 3300 c0 -25 2 -35 4 -22 2 12 2 32 0 45 -2 12 -4 2 -4 -23z"/>
<path d="M8213 3195 c0 -33 2 -45 4 -27 2 18 2 45 0 60 -2 15 -4 0 -4 -33z"/>
<path d="M8173 3135 c0 -27 2 -38 4 -22 2 15 2 37 0 50 -2 12 -4 0 -4 -28z"/>
<path d="M5520 3145 c-14 -8 -20 -14 -14 -15 5 0 19 7 30 15 24 18 16 19 -16
0z"/>
<path d="M8224 2905 c1 -227 -4 -285 -25 -285 -8 0 -9 35 -5 113 3 61 2 162
-3 222 -8 108 -8 106 -9 -80 -1 -401 -66 -725 -217 -1085 -110 -264 -293 -508
-507 -678 -32 -25 -58 -49 -58 -54 0 -5 -4 -6 -10 -3 -5 3 -10 1 -10 -4 0 -17
12 -13 65 23 214 145 429 418 575 729 153 325 237 787 213 1172 l-9 160 0
-230z"/>
<path d="M7772 3085 c0 -16 2 -22 5 -12 2 9 2 23 0 30 -3 6 -5 -1 -5 -18z"/>
<path d="M871 3084 c0 -11 3 -14 6 -6 3 7 2 16 -1 19 -3 4 -6 -2 -5 -13z"/>
<path d="M3393 3083 c20 -2 54 -2 75 0 20 2 3 4 -38 4 -41 0 -58 -2 -37 -4z"/>
<path d="M2801 3076 c-2 -16 32 -116 39 -116 12 0 175 59 164 59 -6 1 -44 -10
-84 -24 -40 -14 -75 -23 -77 -22 -2 2 -12 28 -22 58 -11 30 -20 50 -20 45z"/>
<path d="M3278 3073 c12 -2 30 -2 40 0 9 3 -1 5 -23 4 -22 0 -30 -2 -17 -4z"/>
<path d="M3553 3073 c9 -2 25 -2 35 0 9 3 1 5 -18 5 -19 0 -27 -2 -17 -5z"/>
<path d="M3208 3063 c6 -2 18 -2 25 0 6 3 1 5 -13 5 -14 0 -19 -2 -12 -5z"/>
<path d="M3628 3063 c7 -3 16 -2 19 1 4 3 -2 6 -13 5 -11 0 -14 -3 -6 -6z"/>
<path d="M886 3030 c13 -72 98 -340 151 -475 229 -578 567 -977 1023 -1205
363 -182 848 -218 1340 -100 266 64 463 196 629 420 305 411 268 1003 -79
1261 -83 62 -230 130 -279 129 -9 -1 16 -11 54 -24 131 -42 238 -114 319 -212
75 -91 139 -215 104 -202 -11 5 -9 -12 10 -76 30 -102 41 -289 22 -404 -57
-352 -282 -659 -587 -798 -204 -93 -592 -152 -878 -133 -720 46 -1251 470
-1601 1277 -35 81 -64 140 -64 132 -1 -11 -6 -9 -19 8 -17 19 -53 123 -130
372 -11 36 -18 49 -15 30z"/>
<path d="M3148 3053 c6 -2 18 -2 25 0 6 3 1 5 -13 5 -14 0 -19 -2 -12 -5z"/>
<path d="M816 2925 c2 -71 7 -169 10 -217 5 -60 4 -88 -4 -88 -6 0 -13 8 -15
18 -9 30 4 -68 24 -196 59 -362 190 -741 355 -1030 67 -117 175 -276 233 -342
42 -49 41 -16 -2 41 -110 145 -234 353 -299 502 -53 122 -140 388 -183 562
-55 225 -96 493 -115 755 l-9 125 5 -130z"/>
<path d="M3108 3043 c7 -3 16 -2 19 1 4 3 -2 6 -13 5 -11 0 -14 -3 -6 -6z"/>
<path d="M7762 3025 c0 -16 2 -22 5 -12 2 9 2 23 0 30 -3 6 -5 -1 -5 -18z"/>
<path d="M3068 3033 c7 -3 16 -2 19 1 4 3 -2 6 -13 5 -11 0 -14 -3 -6 -6z"/>
<path d="M3028 3023 c7 -3 16 -2 19 1 4 3 -2 6 -13 5 -11 0 -14 -3 -6 -6z"/>
<path d="M4560 3020 c0 -5 5 -10 11 -10 5 0 7 5 4 10 -3 6 -8 10 -11 10 -2 0
-4 -4 -4 -10z"/>
<path d="M5308 3023 c7 -3 16 -2 19 1 4 3 -2 6 -13 5 -11 0 -14 -3 -6 -6z"/>
<path d="M4598 3013 c6 -2 18 -2 25 0 6 3 1 5 -13 5 -14 0 -19 -2 -12 -5z"/>
<path d="M5258 3013 c7 -3 16 -2 19 1 4 3 -2 6 -13 5 -11 0 -14 -3 -6 -6z"/>
<path d="M4663 3003 c9 -2 25 -2 35 0 9 3 1 5 -18 5 -19 0 -27 -2 -17 -5z"/>
<path d="M5193 3003 c9 -2 23 -2 30 0 6 3 -1 5 -18 5 -16 0 -22 -2 -12 -5z"/>
<path d="M4763 2993 c15 -2 37 -2 50 0 12 2 0 4 -28 4 -27 0 -38 -2 -22 -4z"/>
<path d="M5108 2993 c12 -2 30 -2 40 0 9 3 -1 5 -23 4 -22 0 -30 -2 -17 -4z"/>
<path d="M4918 2983 c23 -2 61 -2 85 0 23 2 4 4 -43 4 -47 0 -66 -2 -42 -4z"/>
<path d="M7746 2957 c-12 -66 -56 -190 -93 -264 -33 -66 -43 -77 -64 -75 -4 1
-25 -27 -47 -61 -197 -305 -589 -562 -992 -653 -51 -12 -124 -17 -230 -18
-185 -1 -251 14 -427 99 -94 45 -123 65 -186 127 -117 116 -187 232 -258 428
-21 58 -38 96 -39 85 -1 -19 -1 -19 -14 -2 -14 18 -15 18 -24 0 -10 -17 -11
-16 -20 6 -18 48 -37 -159 -37 -394 0 -243 16 -354 76 -542 76 -238 221 -469
372 -595 89 -74 97 -57 11 24 -141 134 -254 308 -320 495 -19 52 -36 115 -39
139 -2 24 -7 53 -10 64 -4 12 -2 19 4 18 6 -2 223 -216 483 -475 296 -296 480
-473 493 -474 l20 0 -20 -9 c-11 -5 -14 -9 -6 -9 8 -1 20 -9 27 -18 10 -15 33
-19 154 -21 78 -2 179 1 224 8 198 28 416 116 592 238 l76 54 -28 18 c-51 33
-738 730 -728 739 5 5 52 25 104 46 52 20 146 64 207 96 62 32 117 59 121 59
4 0 147 -139 317 -310 170 -170 314 -310 320 -310 6 0 29 28 52 63 47 70 90
152 74 143 -5 -4 -12 3 -16 14 -3 11 -11 20 -17 20 -6 0 -5 -7 3 -17 11 -16
11 -16 -1 -5 -8 7 -15 16 -15 20 0 14 -508 511 -517 506 -23 -14 0 15 82 103
162 175 267 356 327 565 13 48 23 93 21 100 -3 7 -8 -4 -12 -25z"/>
<path d="M4581 2975 c0 -5 8 -26 19 -45 11 -19 19 -30 19 -25 0 6 -8 26 -19
45 -11 19 -19 31 -19 25z"/>
<path d="M4631 2865 c0 -5 6 -21 14 -35 8 -14 14 -20 14 -15 0 6 -6 21 -14 35
-8 14 -14 21 -14 15z"/>
<path d="M4660 2795 c0 -5 5 -17 10 -25 5 -8 10 -10 10 -5 0 6 -5 17 -10 25
-5 8 -10 11 -10 5z"/>
<path d="M4680 2745 c0 -5 5 -17 10 -25 5 -8 10 -10 10 -5 0 6 -5 17 -10 25
-5 8 -10 11 -10 5z"/>
<path d="M5884 986 c27 -22 118 -77 105 -63 -3 4 -34 25 -70 47 -35 22 -51 30
-35 16z"/>
<path d="M4670 930 c-6 -11 -8 -20 -6 -20 3 0 10 9 16 20 6 11 8 20 6 20 -3 0
-10 -9 -16 -20z"/>
<path d="M4610 840 c-12 -16 -19 -30 -16 -30 2 0 14 14 26 30 12 17 19 30 16
30 -2 0 -14 -13 -26 -30z"/>
<path d="M4564 778 l-19 -23 23 19 c21 18 27 26 19 26 -2 0 -12 -10 -23 -22z"/>
<path d="M4466 671 c-53 -53 -85 -78 -97 -76 -11 2 -31 -6 -46 -19 -76 -62
-202 -141 -320 -200 -148 -74 -387 -159 -498 -177 -106 -17 -428 -6 -566 20
-302 55 -622 169 -859 305 -137 79 -150 86 -150 76 0 -15 162 -119 276 -178
396 -203 896 -313 1244 -273 259 30 650 204 869 388 25 21 48 37 52 36 3 -1
46 38 95 88 49 49 86 89 84 89 -3 0 -41 -36 -84 -79z"/>
</g>
</svg>
